<svg xmlns="http://www.w3.org/2000/svg" xmlns:xlink="http://www.w3.org/1999/xlink" viewBox="0 0 400 280"><defs><style>.cls-1{fill:url(#linear-gradient);}.cls-2{fill:#aeaeae;}.cls-3{fill:#777;}.cls-4{fill:#8e8e8e;}.cls-5{fill:#a9a9a9;}.cls-6{fill:url(#linear-gradient-2);}.cls-7{fill:url(#linear-gradient-3);}.cls-8{fill:url(#linear-gradient-4);}.cls-9{fill:url(#linear-gradient-5);}.cls-10{fill:url(#linear-gradient-6);}.cls-11{fill:#fff;}.cls-12{fill:#1d1d1d;}</style><linearGradient id="linear-gradient" x1="200" x2="200" y2="280" gradientUnits="userSpaceOnUse"><stop offset="0" stop-color="#ababab"/><stop offset="0.03" stop-color="#bbb"/><stop offset="0.09" stop-color="#d4d4d4"/><stop offset="0.16" stop-color="#e7e7e7"/><stop offset="0.24" stop-color="#f5f5f5"/><stop offset="0.34" stop-color="#fdfdfd"/><stop offset="0.52" stop-color="#fff"/><stop offset="0.73" stop-color="#fdfdfd"/><stop offset="0.81" stop-color="#f6f6f6"/><stop offset="0.87" stop-color="#eaeaea"/><stop offset="0.92" stop-color="#d8d8d8"/><stop offset="0.97" stop-color="#c2c2c2"/><stop offset="1" stop-color="#ababab"/></linearGradient><linearGradient id="linear-gradient-2" x1="102.2" y1="76.55" x2="328.37" y2="76.55" gradientUnits="userSpaceOnUse"><stop offset="0"/><stop offset="0.01" stop-color="#141414"/><stop offset="0.03" stop-color="#333"/><stop offset="0.06" stop-color="#4c4c4c"/><stop offset="0.08" stop-color="#5f5f5f"/><stop offset="0.11" stop-color="#6d6d6d"/><stop offset="0.15" stop-color="#757575"/><stop offset="0.22" stop-color="#777"/><stop offset="0.24" stop-color="#7c7c7c"/><stop offset="0.34" stop-color="#8a8a8a"/><stop offset="0.43" stop-color="#8e8e8e"/><stop offset="0.47" stop-color="#949494"/><stop offset="0.67" stop-color="#aeaeae"/><stop offset="0.91" stop-color="#a9a9a9"/></linearGradient><linearGradient id="linear-gradient-3" x1="116.59" y1="111.96" x2="342.71" y2="111.96" xlink:href="#linear-gradient-2"/><linearGradient id="linear-gradient-4" x1="105.14" y1="84.42" x2="331.02" y2="84.42" xlink:href="#linear-gradient-2"/><linearGradient id="linear-gradient-5" x1="112.99" y1="101.21" x2="339.02" y2="101.21" xlink:href="#linear-gradient-2"/><linearGradient id="linear-gradient-6" x1="110.29" y1="93.64" x2="336.29" y2="93.64" xlink:href="#linear-gradient-2"/></defs><g id="_5" data-name="5"><rect class="cls-1" width="400" height="280"/><path d="M233,126.9c.52-1.27,1.88-1.62,3.39-1.57a25.38,25.38,0,0,0,6-.67c.4-.08.62-1.27.84-2a20,20,0,0,0,.39-2.05h.73c.23,1,.49,1.92.68,2.88.25,1.25.72,1.65,2.06,1.11a17.07,17.07,0,0,1,3.86-.79,26.68,26.68,0,0,1,3.77-.42,65.41,65.41,0,0,1,8.9.47c-.3.17-.59.47-.88.47-2,0-4-.07-5.92-.11a18.46,18.46,0,0,0-2,0c-1.37.12-2.74.25-4.1.46a13.85,13.85,0,0,0-3.36.71c-1.36.57-2.45.85-3.08-.75a14.32,14.32,0,0,1-8.29,1.63A12.68,12.68,0,0,0,233,126.9Z"/><path d="M267.58,123.76c.51-1.28,1.87-1.62,3.38-1.57,2.8.09,5.1.54,6-.67.38-.5.47-1.35.93-1.39a.72.72,0,0,1,.48.24l.48-.18a1.1,1.1,0,0,1,.76.17c.44.33.23,1,.63,1.23a1.67,1.67,0,0,0,1.43-.13,17.53,17.53,0,0,1,3.85-.78,25.44,25.44,0,0,1,3.77-.42,65.41,65.41,0,0,1,8.9.47c-.29.16-.58.47-.87.47-2,0-3.95-.08-5.93-.11a18.31,18.31,0,0,0-2,0c-1.37.13-2.74.26-4.1.46a13.94,13.94,0,0,0-3.37.72c-1.35.57-2.45.85-3.08-.75a14.39,14.39,0,0,1-8.29,1.63A12,12,0,0,0,267.58,123.76Z"/><path d="M111.14,151.52c.52-1.28,1.88-1.62,3.39-1.57a25.91,25.91,0,0,0,6-.67c.4-.08.62-1.28.84-2s.27-1.37.4-2.05h.72c.23,1,.49,1.91.68,2.88.25,1.24.72,1.64,2.06,1.1a18.24,18.24,0,0,1,3.86-.79,26.66,26.66,0,0,1,3.77-.41,65.41,65.41,0,0,1,8.9.47c-.29.16-.59.46-.88.46-2,0-3.95-.07-5.92-.11a18.46,18.46,0,0,0-2,0c-1.37.13-2.74.26-4.1.46a13.85,13.85,0,0,0-3.36.71c-1.36.58-2.45.86-3.08-.75a14.41,14.41,0,0,1-8.29,1.64A12.2,12.2,0,0,0,111.14,151.52Z"/><path d="M145.74,148.38c.51-1.28,1.88-1.62,3.38-1.57,2.8.09,5.1.53,6-.67.38-.5.47-1.35.93-1.39a.64.64,0,0,1,.48.24l.48-.18a1.1,1.1,0,0,1,.76.17c.44.33.23,1,.63,1.23a1.7,1.7,0,0,0,1.43-.13,17.66,17.66,0,0,1,3.85-.79,26.84,26.84,0,0,1,3.77-.42,63.87,63.87,0,0,1,8.9.48c-.29.16-.58.46-.87.46-2,0-3.95-.07-5.93-.11a18.31,18.31,0,0,0-2,0c-1.37.12-2.74.26-4.1.46a13.93,13.93,0,0,0-3.37.71c-1.35.58-2.44.86-3.08-.75a14.39,14.39,0,0,1-8.29,1.64A12,12,0,0,0,145.74,148.38Z"/><path d="M248.29,100.8c-2.67.43-5.33.89-8,1.26-1.42.2-2.86.2-4.28.37-4.53.53-9.06,1.09-13.58,1.64l-.1-.45,9.93-1.73c.32-.06.67.06,1,0,4.21-.53,8.42-1.08,12.62-1.62.77-.09,1.55-.15,2.32-.23Z"/><path d="M123.21,107.79c-2.69.24-5.38.52-8.07.71-1.42.1-2.86,0-4.29.08-4.56.22-9.11.47-13.66.72l-.07-.45c3.34-.36,6.68-.72,10-1.06.32,0,.66.1,1,.08,4.23-.24,8.46-.51,12.69-.75.78-.05,1.55-.06,2.33-.08Z"/><path d="M177.31,134.17c-2.69.14-5.39.31-8.09.4-1.43,0-2.86-.11-4.29-.1-4.56,0-9.12.11-13.68.18l-.05-.46,10.06-.66c.33,0,.66.13,1,.13l12.72-.25c.77,0,1.55,0,2.32,0Z"/><path d="M161.08,107.18c-2.7.14-5.4.32-8.1.4-1.42,0-2.86-.11-4.29-.09-4.56,0-9.12.11-13.68.17l0-.45q5-.34,10.06-.66c.32,0,.65.13,1,.12l12.72-.25c.77,0,1.55,0,2.32,0Z"/><path d="M279.67,132.49a13.44,13.44,0,0,1-.2,2.23,12.62,12.62,0,0,1-.8,1.81l-1.59-1.14-13.53-.56c11.45,1.48,14.45,1,14.73.15a9.78,9.78,0,0,0,.35-1.35,15.92,15.92,0,0,1,.68-2.09,10.62,10.62,0,0,1,2,.9,4.9,4.9,0,0,0,5.17.83c1.48-.57,3.45.14,5.2.28l-.06.74a18.58,18.58,0,0,0-2.23-.16,11.35,11.35,0,0,0-3.47.31,4.63,4.63,0,0,1-4.09-.54C281.21,133.55,280.64,133.12,279.67,132.49Z"/><path d="M179.37,154.67a13.58,13.58,0,0,1-.2,2.24,11.66,11.66,0,0,1-.81,1.81l-1.58-1.15L163.25,157c11.45,1.48,14.45,1,14.73.14a11.12,11.12,0,0,0,.35-1.35,16.42,16.42,0,0,1,.68-2.09,11.3,11.3,0,0,1,2,.9,4.88,4.88,0,0,0,5.17.83c1.48-.57,3.45.14,5.2.28l-.06.74a21.08,21.08,0,0,0-2.24-.16,11.64,11.64,0,0,0-3.46.31,4.63,4.63,0,0,1-4.09-.54C180.91,155.73,180.33,155.31,179.37,154.67Z"/><path d="M255.67,104.62,276,102.38l.07.69c-6.77,1-13.52,2-20.39,2Z"/><path d="M257.94,86.16l-17.8-.77,0-.8,17.81.7Z"/><path d="M213.86,85.52c.67-.15,1.35-.34,2-.45,2.62-.39,5.24-.76,7.86-1.13a6.61,6.61,0,0,1,4.46.7c.85.49,2.06.37,3.27.55a2.91,2.91,0,0,1-3.6.35c-1.56-1-3.12-.85-4.77-.63-3.05.41-6.1.78-9.15,1.16Z"/><path d="M260.12,88.45l-15.33-.07C246.69,87.28,258.48,87.26,260.12,88.45Z"/><path d="M308.3,157.84c2.06-.49,4.13-.92,6.15-1.52.43-.12.81-.78,1-1.27a13.68,13.68,0,0,0,.5-2.23c.89.77,1.22,1,.82,2.2-.87,2.59-2.87,2.42-4.79,2.8-.63.13-1.22.55-1.85.63a2.76,2.76,0,0,1-.5,0c-.88,0-16.33.32-39.61.83Z"/><path d="M193.28,180.79c2.06-.49,4.13-.92,6.15-1.52.43-.12.81-.78,1-1.27a13.93,13.93,0,0,0,.5-2.23c.89.77,1.22,1,.82,2.2-.87,2.58-2.87,2.42-4.79,2.8-.63.13-1.22.55-1.85.63a2.76,2.76,0,0,1-.5,0c-.88,0-16.33.32-39.61.83Z"/><path d="M255.76,114.55c3.22-.71,6.49-.28,9.73-.33l13.72-2.07-55.8,4.68Z"/><path d="M278.31,167.23c6.38.35,11.76.4,15.84.36,8.18-.07,11.42-.5,14.22-1.08a51.87,51.87,0,0,0,8.5-2.52l.2.71Z"/><path d="M131.82,195.09c6.38.35,11.76.4,15.84.36,8.19-.07,11.42-.5,14.22-1.08a53.06,53.06,0,0,0,8.51-2.52l.2.71Z"/><path d="M197,89.94l8-2.64.24.73-8,2.56Z"/><path d="M154.38,122.08c.7-.07,1.39-.18,2.08-.2,2.65-.06,5.29-.1,7.94-.13a6.64,6.64,0,0,1,4.33,1.25c.79.6,2,.63,3.18,1a2.92,2.92,0,0,1-3.62-.1c-1.42-1.19-3-1.25-4.65-1.23-3.07,0-6.14,0-9.22,0Z"/><path d="M106,132l8.24-1.62.15.76-8.26,1.53Z"/><path d="M306.42,141.87l-54.57,4.84c16.3-2.33,33.18-4,50.61-4.69Z"/><path d="M146.8,95.93l-54.56,4.85a507.48,507.48,0,0,1,50.61-4.7Z"/><path d="M178.49,167.57l-54.57,4.85a504.56,504.56,0,0,1,50.61-4.69Z"/><path class="cls-2" d="M50.43,190.26a36.21,36.21,0,0,1-10.64,9.17l2.55,3.4c1.37,1.83,2.77,3.62,4.08,5.48a17.68,17.68,0,0,1,2.88,7.57c.37,2.36-.8,4.07-2.83,4.34a3.77,3.77,0,0,1-4-3.41,8.93,8.93,0,0,1,1.65-6.57,2,2,0,0,0-.17-2.8c-3.51-4.36-6.61-9.07-10.9-12.77a7.11,7.11,0,0,1-.63-.74,7.74,7.74,0,0,1,1.65-.48c2.5-.11,4.38-1.56,6.08-3.09,2-1.79,4.1-3.58,5-6.33.36-1.11,1.37-1.22,2.25-.45a4.41,4.41,0,0,1,.64.73c3.52,5.27,7.75,10.06,10.43,15.88.74,1.61,1.73,3.1,2.43,4.73a6.33,6.33,0,0,1-.08,4.65c-.26.77-.53,1.54-.81,2.3a2.67,2.67,0,0,1-2.31,1.9,2.33,2.33,0,0,1-2.36-1.42c-1.56-2.82-1.19-5.72-.28-8.63.16-.5.39-1,.53-1.49a5.85,5.85,0,0,0-.7-5.32C53.34,194.82,52,192.61,50.43,190.26Z"/><path class="cls-3" d="M369.22,92.17a26.75,26.75,0,0,1-10.45-.38c-.11,1-.22,2.09-.33,3.16-.18,1.68-.32,3.37-.55,5a13.15,13.15,0,0,1-2.26,5.59c-1,1.47-2.5,1.82-3.75.94a2.81,2.81,0,0,1-.47-3.9,6.6,6.6,0,0,1,4.23-2.75A1.53,1.53,0,0,0,357,98.26c.28-4.16,1-8.3.5-12.49a5.75,5.75,0,0,1,0-.72,5.77,5.77,0,0,1,1.14.56,7.26,7.26,0,0,0,4.88,1.4c2,0,4.06.12,5.94-.93.76-.42,1.37,0,1.45.9a2.48,2.48,0,0,1,0,.72c-.74,4.66-.86,9.41-2.34,14-.41,1.25-.62,2.57-1.06,3.81a4.69,4.69,0,0,1-2.4,2.5l-1.61.85a2,2,0,0,1-2.22-.14,1.72,1.72,0,0,1-.57-2c.58-2.33,2.25-3.73,4.22-4.86.34-.19.71-.34,1-.55a4.33,4.33,0,0,0,2.31-3.25C368.5,96.14,368.88,94.24,369.22,92.17Z"/><path class="cls-4" d="M342.63,137.25c-.14-1.44-.25-2.89-.44-4.33a2.72,2.72,0,0,0-.53-1.26c-1-1.26-2.13-2.42-3.11-3.7a6,6,0,0,1-.64-1.74,14.25,14.25,0,0,1,1.73,0,9.45,9.45,0,0,1,1.63.58,12.83,12.83,0,0,0-.78-1.41c-1.73-2.22-3.48-4.44-5.22-6.65-.1-.12-.27-.21-.32-.34-.24-.65-.82-1.53-.59-1.91.48-.8,1.31-.18,1.83.22,1.36,1,2.69,2.13,3.95,3.29,2.93,2.68,2.5,6.4,2.91,9.82.29,2.42.38,4.86.51,7.29.06,1.07.55,1.43,1.59,1.33a16.83,16.83,0,0,1,3.17-.09c1.94.19,2.81,1.07,2.79,2.56a3.78,3.78,0,0,1-3,3.7,5.15,5.15,0,0,1-4.55-2,6.15,6.15,0,0,1-1.75-4.37c0-.32.32-.63.49-.94Zm-1-12.28c.33-2-3.09-6.37-5.34-6.91C338,120.3,339.8,122.63,341.6,125Zm-2.28,2.39,2.56,2.8C342.35,128.23,342.07,127.89,339.32,127.36Z"/><path class="cls-3" d="M40.07,113.65c.42-1.21.87-2.42,1.24-3.65a2.26,2.26,0,0,0,0-1.21c-.35-1.38-.81-2.73-1.13-4.12a5.8,5.8,0,0,1,.13-1.64,11.07,11.07,0,0,1,1.39.66,9,9,0,0,1,1.1,1.06,11.67,11.67,0,0,0-.11-1.42c-.57-2.43-1.15-4.85-1.74-7.28,0-.13-.14-.26-.13-.39,0-.61-.09-1.53.24-1.75.68-.46,1.12.34,1.39.85.71,1.34,1.37,2.71,2,4.11,1.36,3.23-.37,6.07-1.3,9-.66,2-1.5,4-2.29,6-.35.88-.09,1.35.79,1.66a14,14,0,0,1,2.58,1.1c1.49.87,1.86,1.9,1.29,3.09a3.33,3.33,0,0,1-3.79,1.85,4.55,4.55,0,0,1-2.91-3.31,5.53,5.53,0,0,1,.21-4.17c.13-.25.49-.38.74-.57Zm3.72-10.25c1-1.53-.14-6.26-1.75-7.53Zm-2.72,1.07,1,3.2C43.18,106.3,43.08,105.92,41.07,104.47Z"/><path class="cls-5" d="M54.9,52.57a17.77,17.77,0,0,1-.37,2.94,1.87,1.87,0,0,1-1.15,1.13,1.44,1.44,0,0,1-1.18-.78c-.77-3.69-3.12-3.43-5.87-2.56-.48.15-1.16-.33-1.74-.51.27-.55.52-1.12.83-1.65.13-.21.42-.33.62-.49,3.06-2.48,3-2.46,1.34-6A8.94,8.94,0,0,1,47,42.28a7.71,7.71,0,0,1,2.5.42c1.9,1,3.58,1.85,5-.69.24-.42,1.38-.84,1.65-.65a3.41,3.41,0,0,1,.61,3.38,1.79,1.79,0,0,0,1,2.44,10,10,0,0,1,2.14,1.46,2.81,2.81,0,0,1,1,1.77c0,.4-.83.91-1.39,1.15-1.4.61-2.86,1.1-4.29,1.64Z"/><path class="cls-5" d="M104.59,53c-1.15,2.76,0,4.28,2.42,5.41-2.5.72-4.92,1.1-5.06,4.43-1.24-2.61-3.16-3.54-6-3.33,2.5-1.6,2.42-3.76,1.88-6.23C100.23,54.89,102.32,55,104.59,53Z"/><path class="cls-5" d="M59.48,160.06a3,3,0,0,1-.85-4.07,3.81,3.81,0,0,1,4.52-1,3,3,0,0,1,1.17,3.84A4.09,4.09,0,0,1,59.48,160.06Z"/><path class="cls-5" d="M356.92,164.14c.94.08,1.89.08,2.81.25,1.2.22,1.73-.29,2.1-1.37a24.15,24.15,0,0,1,1.32-2.83l.54-.06a14.31,14.31,0,0,1,1.27,3.08c.26,1.54,1.06,2,2.47,2.06a11.5,11.5,0,0,1,2.6.77,11.19,11.19,0,0,1-2,2.18,2.17,2.17,0,0,0-1.05,2.91c.29.93.52,2.59.07,2.9-1.17.81-1.94-.6-2.68-1.33s-1.61-1.1-2.57-.23a2.47,2.47,0,0,1-1.07.68,11.84,11.84,0,0,1-2,.1c0-.55,0-1.11,0-1.66a1.31,1.31,0,0,1,.21-.6c1.09-1.83.67-3.28-1-4.55a8.85,8.85,0,0,1-1.43-1.85Z"/><path class="cls-5" d="M281.23,41.09c1.53-.14,2.73-.3,3.93-.34a1.36,1.36,0,0,0,1.48-1.29c.28-1.32.75-2.61,1.14-3.91l.59-.08a39.49,39.49,0,0,1,2.08,3.83c.4.94.86,1.36,1.89,1.25a17.21,17.21,0,0,1,2.87-.08c1.06.05,1.35.6.65,1.46a19.65,19.65,0,0,1-2,2.25,1.51,1.51,0,0,0-.45,2.08,14.34,14.34,0,0,1,1.05,2.68,1.51,1.51,0,0,1-.2,1.27,1.46,1.46,0,0,1-1.31.09,11.62,11.62,0,0,1-2.28-1.46,1.36,1.36,0,0,0-2.07.09A10.18,10.18,0,0,1,286,50.65c-.88.37-1.62-.23-1.27-1.14,1.2-3.19.44-5.51-2.63-7.07C281.74,42.27,281.61,41.72,281.23,41.09Z"/><path class="cls-6" d="M102.2,106.14q1.06-2.58,2.14-5.15c5.52-13,14.81-23.06,25.46-32,.53-.45,1.13-.81,1.64-1.29,7.72-7.26,17.11-11.74,26.7-15.83a65.87,65.87,0,0,1,19.75-4.65,90.86,90.86,0,0,1,36.4,4c5,1.58,9.77,3.86,14.73,5.57q11.05,3.8,21.68,8.59A69.92,69.92,0,0,0,280,71.71a90.86,90.86,0,0,0,21-2.84,15.82,15.82,0,0,0,3.4-1.07c7.92-4,16.13-7.66,22.47-14.21a14.37,14.37,0,0,1,1.11-.93l.42.34a34.62,34.62,0,0,1-3.23,4.15,28.5,28.5,0,0,1-4.76,3.53c-3.38,2.07-6.78,4.12-10.29,5.95A40.8,40.8,0,0,1,302,70c-11.12,3-22.43,4.24-33.84,2.09A72.11,72.11,0,0,1,253.64,68c-9.68-4.07-19.4-8-29.32-11.51-5-1.75-9.89-3.85-15-5.21-15.45-4.12-31.08-4.55-46.34.43-9.42,3.07-18.65,7-26.36,13.67-1.65,1.43-3.42,2.7-5.12,4.06a95.14,95.14,0,0,0-25.43,30.27c-1.15,2.21-2.37,4.39-3.56,6.58Z"/><path class="cls-7" d="M116.59,141.52c.71-1.71,1.41-3.43,2.13-5.14,5.54-13.08,14.86-23.16,25.58-32.11,1.86-1.55,3.87-2.94,5.7-4.52a51.77,51.77,0,0,1,14.69-8.88c.87-.36,1.74-.73,2.58-1.16,14.69-7.49,30.25-8.63,46.32-6.56,10.15,1.31,19.5,5,29,8.57,8.7,3.22,17.22,6.82,25.79,10.32a68.89,68.89,0,0,0,39.11,3.82c2.68-.49,5.36-1,8-1.68a19.76,19.76,0,0,0,4.9-1.7c6.58-3.62,13.49-6.74,19.17-11.82.88-.79,1.7-1.65,2.56-2.48a2.67,2.67,0,0,1,.6-.15c-.45.83-.75,1.5-1.15,2.11A19.38,19.38,0,0,1,334.93,96c-3.51,2-7,4.2-10.56,6.08a39.32,39.32,0,0,1-7.79,3.27c-11.31,3.06-22.79,4.16-34.43,2.13-7.28-1.27-14.12-3.88-20.87-6.8-5-2.17-10.19-4.09-15.31-6.09-3.46-1.36-7-2.58-10.41-4a91.63,91.63,0,0,0-37.27-6.9A71.66,71.66,0,0,0,178,86.86a82.88,82.88,0,0,0-22.52,10.58c-11,7.65-21.06,16.41-28.72,27.53-3.34,4.83-6,10.12-9,15.2-.29.5-.53,1-.8,1.52Z"/><path class="cls-8" d="M105.14,114c1-2.44,2.1-4.87,3.14-7.31,2.24-5.24,5.53-9.79,9-14.27,7.31-9.37,16.51-16.63,25.89-23.72a22.08,22.08,0,0,1,3.8-2.32c5.19-2.48,10.25-5.34,15.67-7.17a81.46,81.46,0,0,1,17.47-4A90.1,90.1,0,0,1,225.21,62c3.92,1.67,8,2.92,12,4.5,6.3,2.51,12.55,5.15,18.83,7.72a70.39,70.39,0,0,0,40.38,4.1c1.56-.29,3.12-.57,4.67-.91a24.57,24.57,0,0,0,4-1c9-3.62,17.44-8,24.52-14.75a5.55,5.55,0,0,1,1.41-1,9,9,0,0,1-3.15,4.63A52.93,52.93,0,0,1,322,69.32c-2.77,1.72-5.57,3.43-8.49,4.9a46.88,46.88,0,0,1-8.72,3.7C294,80.84,282.88,82.11,271.72,80a74.78,74.78,0,0,1-15.14-4.18c-9.65-4-19.31-8-29.18-11.45-5.05-1.76-10-3.87-15.14-5.24a86.66,86.66,0,0,0-24.55-3A73.42,73.42,0,0,0,167.77,59,88.29,88.29,0,0,0,142.5,71a125.87,125.87,0,0,0-11.05,8.78c-8.89,7.86-16.66,16.66-22.15,27.3-1.22,2.37-2.52,4.7-3.78,7Z"/><path class="cls-9" d="M113,130.78c.71-1.72,1.41-3.44,2.14-5.15,5.55-13.07,14.86-23.15,25.58-32.1,1.86-1.56,3.87-2.94,5.71-4.53a51.6,51.6,0,0,1,14.69-8.87c.82-.34,1.64-.69,2.44-1.1,14.88-7.59,30.63-8.72,46.9-6.55,10,1.34,19.2,5.06,28.55,8.51,8.65,3.19,17.13,6.77,25.65,10.26a69,69,0,0,0,39.4,3.85c1.65-.31,3.32-.59,5-1a30.63,30.63,0,0,0,5.58-1.52c7.6-3.41,14.94-7.3,21.37-12.7,1-.81,1.82-1.77,2.72-2.66l.34.23c-.35.64-.65,1.32-1.06,1.93a19.38,19.38,0,0,1-6.63,5.84c-3.51,2-7,4.2-10.57,6.08A39.2,39.2,0,0,1,313,94.59c-11.32,3.06-22.82,4.3-34.43,2.06a70,70,0,0,1-14.11-4c-9.68-4.09-19.4-8-29.32-11.51-5-1.75-9.89-3.85-15-5.21-15.45-4.12-31.08-4.54-46.34.43-9.37,3-18.56,7-26.24,13.58-1.77,1.51-3.67,2.87-5.48,4.34-10.37,8.37-19,18.19-25.19,30.08-1.15,2.21-2.37,4.39-3.56,6.59Z"/><path class="cls-10" d="M110.29,123.19c.71-1.72,1.42-3.45,2.15-5.17C118,105,127.26,95,137.94,86c2.4-2,4.79-4,7.36-5.79,3.3-2.25,6.7-4.4,10.2-6.31,3.22-1.75,6.61-3.17,10-4.66a66.3,66.3,0,0,1,20.58-5,90.18,90.18,0,0,1,36.26,3.94c5.32,1.7,10.48,3.93,15.69,6,6.55,2.56,13.14,5,19.6,7.8,9.72,4.18,19.72,6.84,30.37,6.8a90.49,90.49,0,0,0,21.3-2.9A13.58,13.58,0,0,0,312.1,85c8.06-4,16.31-7.72,22.77-14.29a2.69,2.69,0,0,1,1.42-.81,6.16,6.16,0,0,1-.69,1.41c-1.06,1.3-2,2.87-3.33,3.75-8.79,5.72-17.4,11.67-28.17,13.47-9.13,1.53-18.21,2.34-27.33.71a62.74,62.74,0,0,1-13.61-3.6c-11.22-4.79-22.66-9-34-13.43a106.07,106.07,0,0,0-18.95-5.47,83.46,83.46,0,0,0-24.12-1c-7.8.77-15.5,2.3-22.56,6a11.63,11.63,0,0,1-1.47.7c-11,3.91-19.8,11.27-28.19,19-7.86,7.2-14.78,15.35-19.56,25.06-1.15,2.34-2.46,4.59-3.7,6.89Z"/><path class="cls-11" d="M141,93.49c2.46.26,4.33,0,5.93-1.22a41.9,41.9,0,0,0,4.73-3.86c4.35-4.28,7.39-9.08,5.55-15.58-2-7.07-5.56-9.8-12.71-8.06a8.18,8.18,0,0,0-6.11,7.09c-.25,2.89,1.83,6.12,4.82,7.5s6.69-.33,7-3.41c.16-1.45,0-2.94-1.57-3.53s-2.65.33-3.32,1.74c0,.07-.2.08-.42.15a2.92,2.92,0,0,1-.26-.39c-.8-1.47-.45-3.13,1-4.75,1.68-1.85,3.69-2.39,5.63-1.51,4.26,1.93,6.29,9.61,3.59,13.92a28.62,28.62,0,0,1-8.44,9C144.86,91.6,143.09,92.37,141,93.49Zm19.45-24.43A2.61,2.61,0,0,0,163,66.51,2.47,2.47,0,0,0,160.56,64a2.74,2.74,0,0,0-2.76,2.57A2.55,2.55,0,0,0,160.41,69.06Zm3.64,6.58a2.37,2.37,0,0,0-2.57-2.28,2.2,2.2,0,0,0-2.36,2.28,2,2,0,0,0,2.31,2.23A2.36,2.36,0,0,0,164.05,75.64Z"/><path d="M141,93.49c2.13-1.12,3.9-1.89,5.48-2.93a28.62,28.62,0,0,0,8.44-9c2.7-4.31.67-12-3.59-13.92-1.94-.88-3.95-.34-5.63,1.51-1.47,1.62-1.82,3.28-1,4.75a2.92,2.92,0,0,0,.26.39c.22-.07.38-.08.42-.15.67-1.41,1.69-2.34,3.32-1.74s1.73,2.08,1.57,3.53c-.35,3.08-4,4.82-7,3.41s-5.07-4.61-4.82-7.5a8.18,8.18,0,0,1,6.11-7.09c7.15-1.74,10.7,1,12.71,8.06,1.84,6.5-1.2,11.3-5.55,15.58a41.9,41.9,0,0,1-4.73,3.86C145.29,93.45,143.42,93.75,141,93.49Z"/><path d="M160.41,69.06a2.55,2.55,0,0,1-2.61-2.46A2.74,2.74,0,0,1,160.56,64,2.47,2.47,0,0,1,163,66.51,2.61,2.61,0,0,1,160.41,69.06Z"/><path d="M164.05,75.64a2.36,2.36,0,0,1-2.62,2.23,2,2,0,0,1-2.31-2.23,2.2,2.2,0,0,1,2.36-2.28A2.37,2.37,0,0,1,164.05,75.64Z"/><path d="M128.33,116c-1,.78-1.86,1.53-2.78,2.25-3.85,3-10.48,2.43-13.26-.27a16.38,16.38,0,0,1-4.67-9.11,14.6,14.6,0,0,1,2.83-11.56,25.74,25.74,0,0,0,2.07-3.24,2.19,2.19,0,0,0,0-1.74,25.26,25.26,0,0,1-3.25-12,6.51,6.51,0,0,1,5.55-6.55,6.72,6.72,0,0,1,5.4,2.1A13.89,13.89,0,0,1,123.79,82a7.65,7.65,0,0,1-.48,5.15,55.29,55.29,0,0,1-3.07,6.74c-.54,1,0,1.46.42,2.13s.88.71,1.65.44c4.46-1.56,9.3,1.49,10.25,6.37a12.92,12.92,0,0,1-.32,6.47,2.8,2.8,0,0,0,.5,2c2.39,3.46,4.89,6.87,6.13,10.93a20.35,20.35,0,0,1,.89,6.15c0,3.73-3.76,6.69-7.46,6.17-4.48-.62-7-3-7.4-7a3.7,3.7,0,0,1,2.35-4.15,3.57,3.57,0,0,1,3.91.32c1.39,1,2.47,2.85,1.57,4.68a4.16,4.16,0,0,0-1-.24c-.66,0-1.63,0-1.88.33a2.55,2.55,0,0,0-.32,2.19,3.56,3.56,0,0,0,2,1.53c1.91.5,3.51-.57,4.65-1.86a3.51,3.51,0,0,0,.12-3,25.54,25.54,0,0,0-2.8-4.75c-1.43-2-3-3.91-4.54-5.85C128.8,116.48,128.6,116.28,128.33,116Zm-1.57-2.38c-2.34-3.14-4.58-6.15-7-9.39-1.28,4.47.75,6.74,4.84,8a6.11,6.11,0,0,1-6.05-1.76c-2.12-2.59-2.21-5.49-1.3-8.49a2,2,0,0,0-.91-2.63c-1.31,2.88-2.7,5.58-3.75,8.42a5.74,5.74,0,0,0,0,3.73c1.42,3.84,2.48,6.29,6.94,5.35C122.07,116.28,124.62,115.65,126.76,113.6ZM116.47,87.88l.49.17a64.71,64.71,0,0,0,3.09-6.32,4.6,4.6,0,0,0-2.47-5.67c-1-.54-2.38-1.34-3.31-.42a4.25,4.25,0,0,0-.83,3.11A23.75,23.75,0,0,0,116.47,87.88Zm13.81,19.73c.95-4.39-3.6-8-6.23-7Z"/><path d="M323.36,49.24a12.59,12.59,0,0,1,1.89-.1c3.61.37,7-.6,10.38-1.66a5.67,5.67,0,0,1,1.79,0c-.16.58-.15,1.32-.52,1.72-2.24,2.5-4.59,4.9-6.82,7.4a1.94,1.94,0,0,0-.3,1.61c.76,2.44,1.86,4.78,2.43,7.25,1.11,4.71,1,9.29-3.25,12.63A8.81,8.81,0,0,1,325,79.7c-1.61.25-2.65-.92-2.65-2.58A6.51,6.51,0,0,1,325.62,71a7,7,0,0,1,1.29-.69c3.5-1.15,4.22-3.68,2.91-7.26-1.57-4.31-3.87-8.35-5.85-12.51Z"/><path d="M270.79,69.4a24.05,24.05,0,0,1,2,4.14c1.3,4.88,2.54,9.79,3.56,14.74.72,3.52-.05,7-1,10.47a5.56,5.56,0,0,1-1.06,1.81c-2,2.53-4.33,2.26-5.7-.6-1.81-3.79-1.24-6.3,2-8.86a24.6,24.6,0,0,0,2-1.72,4.6,4.6,0,0,0,1.5-4.58c-1.07-4.32-2.21-8.63-3.32-13-.18-.72-.32-1.46-.49-2.2Z"/><path d="M195.24,53.65a6.7,6.7,0,0,1,1.11-.1c5.24.17,9.06-2.53,12.34-6.19,1.21-1.35,2.22-1.43,2.9.27,2.24,5.65,4.43,11.33,6.53,17a27.59,27.59,0,0,1,1.46,5.63c.4,2.78-1.27,4.9-2.92,6.84-1.23,1.45-3.31.74-3.92-1.21-.82-2.61,0-5,1.1-7.39.7-1.46,1.42-2.91,2.07-4.39a1.91,1.91,0,0,0,.14-1.26C215,60,214,57.09,213,54.4l-12.07,6.49c.79,1.66,1.75,3.71,2.73,5.75,1.54,3.21,2.78,6.5,2.7,10.15a11.29,11.29,0,0,1-.15,2.1,3.14,3.14,0,0,1-2.89,2.69,3.19,3.19,0,0,1-3.4-2.24,6.44,6.44,0,0,1,.84-5.46,4.8,4.8,0,0,1,1.18-1.55c1.78-1.34,1.5-2.78.58-4.51C200.05,63.17,197.7,58.47,195.24,53.65Z"/><path d="M244.91,80.89a3.56,3.56,0,0,1,1.92,5,2.28,2.28,0,0,1-3.15,1.44c-2.13-.92-3.47-3.57-2.69-5.33C241.61,80.6,243.25,80.13,244.91,80.89Z"/><path d="M81.13,197.7a139.16,139.16,0,0,0-3.06-15.76c-1.23-5.39-2.81-10.7-4.07-16.08-1.79-7.63-3.42-15.3-5.12-23-.08-.39-.16-.8-.23-1.2-1.14-6-2.37-12.09-3.38-18.17-.69-4.11-1.1-8.28-1.57-12.43-.14-1.28.45-2.08,1.92-2l0-1.43c-1.78-.13-3.52-.27-5.25-.38a1.5,1.5,0,0,0-1.8,1.78,7.75,7.75,0,0,0,.3,1.72q2.36,8.76,4.72,17.53c.89,3.3,1.85,6.6,2.61,9.93,1,4.2,1.71,8.44,2.63,12.64.52,2.37,1.28,4.69,1.84,7.05q2.4,10.11,4.74,20.23c1,4.3,2.49,8.59,2.71,13,.31,6,1.72,11.7,3.18,17.45q4.2,16.58,8.39,33.15c2.94,7.13,4,9.08,4.36,9,.16-.06.21-.63.09-1.08a2.14,2.14,0,0,0-.89-1.15c-1.26-.84-1.64-3.35-2.34-6.6-.8-3.7-.61-1.48-1.43-5.77s-.69-6.84-2.22-13.21C85.3,214.62,82.83,213.36,81.13,197.7Z"/><path d="M346.32,166.94c-1-1.07-6.22-7.3-13.57-16a5.45,5.45,0,0,1-.91-.74c-6.25-7.28-12.4-14.66-18.76-21.85-6.95-7.84-14.13-15.47-21.12-23.27-9.35-10.46-18.69-20.92-29-30.45A19,19,0,0,0,260.57,73c8,8.13,16.09,16.16,23.92,24.44,2.7,2.86,8.71,9.29,22.06,24.32,22.68,25.53,42.09,48.37,42.2,48.27l-.23-.31C347.39,168.14,346.4,167,346.32,166.94Z"/><path d="M312.54,182.05c3.37-.79,6.73-1.65,10.12-2.34,2.65-.53,5.35-.84,8-1.25,0-.23,0-.47.05-.7l-18.32,3.71Z"/><path d="M320.51,186.41l9.76-2.37,0-.35L320.4,186Z"/><path d="M93.81,250.17c.1.39.24.61.42.64q.6.13,1.8-2.4c.76-2.7,2-3.86,3-4.41s2.29-.75,2.25-1-.79,0-1.08-.31c-.6-.73,1.55-3,3.51-6.89.52-1,.89-1.9,1.12-2.47l-4.42,6.75Z"/><path d="M107.19,218.53c-2.64-4.79-3.94-10.05-5.48-15.24Q96.63,186.13,91.34,169c-1.38-4.44-3.26-8.72-4.64-13.16-2.46-7.89-4.84-15.81-7-23.78-1.75-6.39-3.53-12.81-4.65-19.33-.87-5-1.72-10-4-14.55-1.24-2.49-1.33-4.45.51-6.48,0,0-.08-.14-.13-.21-2.31,2.27-2.46,3.3-1.13,6.13a32.62,32.62,0,0,1,1.87,4.7c.74,2.5,1.28,5.06,1.9,7.59l-.43.11L71,102.6l-.33.08a7.23,7.23,0,0,0,.15.81c3.45,11.71,7,23.38,10.34,35.14q5.1,18.17,11.38,35.93c3.46,9.81,6.07,19.93,8.92,29.95,1.63,5.69,3.4,11.31,6.47,16.56a2.27,2.27,0,0,0,0-.59A13.22,13.22,0,0,0,107.19,218.53Z"/><path d="M200.61,199.48c9.18-1.58,18.49-2.28,27.81-1,4.48.62,8.93,1.42,13.4,2.14,0-.07,0-.16-.08-.17-1.76-.35-3.54-.65-5.3-1a92.11,92.11,0,0,0-38.31,0c-11.79,2.44-23.47,5.35-35.2,8.06-1.59.37-3.19.68-4.75,1.15-8.48,2.51-17,5.07-25.42,7.6-.89.27-1.81.46-2.7.7s-1.75.49-2.62.74c12.26-2,23.63-7.26,35.81-9.5-2.11.86-4.29,1.45-6.42,2.2a34.2,34.2,0,0,0-3.58,1.67c8.24-2.48,16.43-5.15,24.74-7.38C185.45,202.63,193,200.8,200.61,199.48Z"/><path d="M109,195.12c-4.26-12.75-9-25.36-13.32-38.08-6.32-18.38-12.5-36.81-18.75-55.22-.67-2-1.47-3.93-2.2-5.89-.25.26-.25.43-.19.58l9.61,28.26C87.75,135.35,91.29,146,95,156.51c4.64,13.36,9.5,26.64,14,40.05,2.2,6.55,3.8,13.29,5.68,19.94l.15,0a6.76,6.76,0,0,0-.12-1.19C112.82,208.54,111.21,201.73,109,195.12Z"/><path d="M167.08,213.62c6.29-1.93,12.57-3.88,18.85-5.8,10.81-3.3,21.69-6.26,33-7.2a4.91,4.91,0,0,0,1.22-.46c-3.75.41-7.54.62-11.25,1.29-12.79,2.33-25.11,6.46-37.52,10.24-14.86,4.51-29.66,9.2-44.53,13.68-5.62,1.69-11.36,3-17,4.51a13.12,13.12,0,0,0-1.57.62c6.27-1.46,12.53-2.81,18.65-4.62C140.33,221.92,153.69,217.72,167.08,213.62Z"/><polygon points="220.16 200.16 220.16 200.16 220.17 200.16 220.16 200.16"/><path d="M91.7,178.63c-2.29-8.18-4.33-16.42-6.61-24.6-1-3.62-2.31-7.15-3.49-10.73l-.39.17c1.15,3.6,2.41,7.16,3.41,10.8,3.72,13.51,7.34,27,11,40.57,2.53,9.31,5.13,18.6,7.7,27.89.23.85.47,1.69.74,2.52s.57,1.65.89,2.46.63,1.47.88,2c-1.12-4.51-2.15-9.15-3.44-13.72C98.9,203.55,95.21,191.11,91.7,178.63Z"/><path d="M80.36,165.38c-1.12-4.09-2.11-8.22-3.16-12.32a2.05,2.05,0,0,0,0,1.38q3.75,14.34,7.53,28.7c3.41,12.86,8,25.44,9.54,38.76.08.69.24,1.37.36,2l.55-.11c-.93-5-1.53-10.12-2.84-15C88.47,194.29,84.34,179.85,80.36,165.38Z"/><path d="M93.72,161.26c-.4-7-14.09-45.5-17.67-49.74C82.82,127.77,89.56,144,93.72,161.26Z"/><path d="M168.28,223.19c-17.46,1.74-34.2,6.61-50.9,11.65C134.21,230.36,151,225.47,168.28,223.19Z"/><path d="M153,212.17l0,0,0,0,.3-.15-.33.11h0l0,0Z"/><path d="M152.44,212.15c-6,2.08-12.06,4.21-18.13,6.21-2.18.72-4.21,1.62-6.7,1.75-4.78.26-9.53,1.37-14.28,2.2a21.19,21.19,0,0,0-3.16,1.08l17.63-3.17-.24,1q12.23-4.09,24.44-8.2c.35-.12.6-.56.89-.87A1.37,1.37,0,0,0,152.44,212.15Z"/><path d="M173.76,215.37c12.94-4.27,25.52-9.86,39.38-10.81C199.14,205,186.57,210.58,173.76,215.37Z"/><path d="M68.29,119c3.39,10.73,8,21.09,9.82,32.3C76.83,139.9,72.22,129.54,68.29,119Z"/><path d="M110.74,242.52l31-8.75A176.79,176.79,0,0,0,110.74,242.52Z"/><path d="M86.32,176.19c-.44-7.58-2.53-15.9-5.17-23.82C82.91,160.49,84.73,168.86,86.32,176.19Z"/><path d="M209.39,211.33a81,81,0,0,0-24.76,5.1c4.09-1,8.16-2.17,12.29-3S205.23,212,209.39,211.33Z"/><path d="M92.22,233.47c1-8.29-.88-16.17-3.69-23.89C90.82,217.36,92.55,225.23,92.22,233.47Z"/><path d="M73.13,152.17c-.52-7.29-2.54-14.88-5.1-22.24C69.76,137.49,71.52,145.14,73.13,152.17Z"/><path d="M76.15,128c-1.39-4.38-2.93-8.72-4.45-13.06-.1-.28-.61-.43-.93-.64-.27-1.21-.55-2.42-.82-3.63l-.55.14q3.43,13,6.88,26a93.79,93.79,0,0,0-2-9.71c-1.06-4.16-2.21-8.3-3.32-12.44l7.32,21.6C77.57,133.42,77,130.69,76.15,128Z"/><path d="M106.7,205.29l.44-.12-5.28-19-.42.12Q104.07,195.78,106.7,205.29Z"/><path d="M97.53,211.67c1.26,5.29,2.51,10.57,3.73,15.73C101.17,222,99.31,216.85,97.53,211.67Z"/><path d="M225.17,203.84l16.91-1.25A64.2,64.2,0,0,0,225.17,203.84Z"/><path d="M255.31,200.35q2.19-.71,4.59-1.35a89.27,89.27,0,0,1,9.23-1.89,42,42,0,0,0-8.17,1.3A40.69,40.69,0,0,0,255.31,200.35Z"/><path d="M253.29,198.55a64.2,64.2,0,0,1,30-9.77,46.25,46.25,0,0,0-30,9.77Z"/><path d="M225.18,200.66c4.46.35,8.93.67,13.39,1,0-.29,0-.57.05-.85l-18.45-.67h0C221.84,200.33,223.51,200.53,225.18,200.66Z"/><path d="M67.73,105.55l2.16-4-.24-.09c-1.08,1.57-2.22,3.11-3.19,4.74-.23.37.11,1.08.16,1.46C67,106.88,67.38,106.21,67.73,105.55Z"/><path d="M284.7,196.29l-8.36.85a13.31,13.31,0,0,0,4-.09C281.79,196.84,283.24,196.55,284.7,196.29Z"/><path d="M285.28,196.23H285l-.28,0,.31,0Z"/><path d="M294,195.39l-8.73.84,8.77-.33Z"/><path d="M113.58,218.79l-5.17,4.06.33.37,5.13-4.07Z"/><polygon points="342.79 176.8 343.17 176.38 330.72 178.1 342.79 176.8"/><polygon points="346.77 175.88 346.77 174.31 348.09 173 348.75 170 343.17 176.38 346.77 175.88"/><path d="M348.75,189.61,345,185.05l.48,3.24-15.84,3.79v0l15.48-3.71-.6-4.66.78-.5.3-2.34H344l2-.94a1.59,1.59,0,0,1,.24-2.15c1.08-1.11.18-1.35.18-1.35l-1.19.13a31.47,31.47,0,0,1-4.59,7.21,31.82,31.82,0,0,1-11.25,8.38c-4.76,1.31-9.62,2.54-14.52,3.83-1.84.48-3.69.92-5.76,1.43.43-1.4.84-2.51,1.11-3.65a2.76,2.76,0,0,0-1.44-3.2c-4.93-3.3-9.78-6.71-14.65-10.09-.41-.28-.77-.61-1.46-1.17,1.31-.25,2.25-.47,3.2-.61,3.61-.51,7.22-1,10.82-1.49l23-3.22a12.9,12.9,0,0,1,1.39,0l17-3.46-21.6,3.2-.06-.31,3.78-1.06,18.6-2.31a181.82,181.82,0,0,0-22.94,2c-14.54,2.2-21.65,3.84-24.15,4.28-3,.53-6,1.05-9.05,1.56a5.14,5.14,0,0,1-3.38-.71q-40.69-27.6-81.33-55.31c-4.81-3.27-9.72-6.39-14.59-9.58,2.9,2.14,5.74,4.36,8.71,6.39q43,29.33,86,58.61c5.82,4,11.59,8,17.38,12,.41.29.79.62,1.21,1-5.44,3.78-5.55,3.93-5.77,8.16L184,113.42c1.38-1.32,1.75-3.82,4.64-3.82l4.7,2.76a73.6,73.6,0,0,1-5.35-7c-3.51-5.88-6.73-11.92-10.13-17.87a1.94,1.94,0,0,1,.16-2.37,23.77,23.77,0,0,1,7.62-7,63.79,63.79,0,0,1,22-7.91c9.91-1.72,19.86-2.49,30-.64,6.76,1.24,13.67,2.34,20.64,1.55a9.06,9.06,0,0,0-1.92-.5c-1.15,0-2.32.27-3.46.17-4.35-.39-8.69-.89-13-1.33-5.14-.53-10.28-1.44-15.42-1.47a110.65,110.65,0,0,0-14.59,1.41,64.46,64.46,0,0,0-25.81,9.11,20,20,0,0,0-6.67,6.79,16.47,16.47,0,0,1-1.11,1.41,28.69,28.69,0,0,0-13.93-6.86c-2.39-.5-4.85-.66-7.25-1.12a45.84,45.84,0,0,0-15.28-.3c-5.24.77-10.49,1.52-15.75,2-3.93.38-7.9.46-11.86.5C98.79,81,86.32,85.66,73.57,89c-1.11.29-1.37,1-1.15,1.64a13.87,13.87,0,0,1,2.4-1.37c1.71-.54,3.52-.79,5.22-1.38a107.45,107.45,0,0,1,30.49-6.33c6.68-.29,13.35-.64,20-1.23,4.81-.42,9.56-1.73,14.36-1.83a89.28,89.28,0,0,1,14.18,1.33,35.68,35.68,0,0,1,8.44,2.07c3.2,1.29,6.39,2.57,8.33,6.07,3.07,5.54,6.74,10.74,10.09,16.12a32.53,32.53,0,0,1,1.75,4l-11.56-3.45-.3.37c2.15,2.77,4.24,5.59,6.49,8.28a16.26,16.26,0,0,0,3.2,2.68c4.18,3,8.42,5.83,12.6,8.8a6.93,6.93,0,0,1,1.88,2c7.41,12.18,14.24,24.72,22.62,36.29,4.6,6.36,9.14,12.77,13.72,19.15,2.47,3.45,5,6.85,7.46,10.33a6,6,0,0,1,1.29,4.52c-1-.42-1.74-.74-2.48-1-7.61-3.08-15.69-3.29-23.69-3.89a35.11,35.11,0,0,0-7.67,0c-7.19,1.09-14.37,2.28-21.49,3.73-13.33,2.71-26.09,7.38-39,11.64-9.94,3.29-19.76,7-30.08,9a4.57,4.57,0,0,0-.75.28,1.89,1.89,0,0,0,1.1,0c8-2.27,16-4.4,24-6.84,12.91-4,25.65-8.5,38.65-12.08a172.64,172.64,0,0,1,26.21-5c9.31-1.06,18.56.78,27.67,2.88,2.82.66,5.52,1.48,7.65,3.56.76.75,1.47,1.56,2.34,2.5,1-1.53,1.85-2.94,2.86-4.17A39.28,39.28,0,0,1,261.17,189c4.66-2.72,9.36-5.23,14.65-6.43a4.33,4.33,0,0,1,2.86.55c1.32.79,2.41,2,3.67,2.87,4.62,3.32,9.26,6.59,13.89,9.89,1.26.89,2.49,1.82,3.93,2.88-.54.19-.75.27-1,.33-4.33,1.27-8.78.86-13.19.88-5.44,0-8.14-.56-9.91-.38-7.42.73-10.08,3.65-17.68,3.56-1.14,0-2-.08-3.56,0-4.62.29-7.73,1.91-9.54,2.15-6.21.83-12.51,1.12-18.7,2.11-3.39.53-6.65,2-9.92,3.13-4,1.44-8,3.08-12.07,4.52-1.91.69-3.95,1-5.88,1.67-5.3,1.8-10.58,3.68-15.85,5.58-2.53.91-5,1.91-7.54,2.87-7.5,2.85-14.93,5.9-22.81,7.69-4.83,1.11-9.71,2-14.43,3.7-6.22,2.26-10.52,2.78-16.12,4.44,0,0-13.64,4-25.08,8.64a18.53,18.53,0,0,0-2.2.92,3.09,3.09,0,0,0,.91-.19,10.14,10.14,0,0,0,2.3-1c1.52-.87,5.33-2,12.93-4.12,2.35-.67,2.33-.6,9.12-2.41,25.42-6.76,25.7-6.94,32.69-8.81,4.38-1.16,8.83-2.06,13.16-3.35,4.73-1.41,9.36-3.15,14-4.73,8.63-2.92,17.25-5.9,25.92-8.7.77-.25,1.54-.46,2.32-.66,3.48-.89,6.11-1.41,7-1.57,3-.54,8.61-1.71,17.77-3.73.36-.14.92-.35,1.61-.56a24.79,24.79,0,0,1,5.31-.72c4.65-.52,6.14-2.71,8.28-1.62.6.31,1,.76,1.7.67,1-.12,1.32-1.26,2.55-2a4.85,4.85,0,0,1,2.86-.43c.41,0-.3,0,8.91-1.22s13.59-1.72,16.3-2c4.69-.43,9.43-.28,14.11-.76a128.37,128.37,0,0,0,12.73-2.09c7.4-1.52,14.77-3.21,22.16-4.82v0c10.7-3.06,17.27-4.85,18.19-4.91a1.32,1.32,0,0,0,1-.39A1.29,1.29,0,0,0,348.75,189.61Zm-166.49-77.7c-1.44-.93-2.26-3.08-3.79-4.61,1.39-1.14,6.39,0,7.79,1.32Zm78.56,75.93c-4.39,3-9.09,5.69-12.28,10.48-.89-1.42-1.58-2.61-2.36-3.74-4.46-6.53-8.5-13.42-13.52-19.49-6.23-7.55-11-16-16.43-24-4.75-7.11-8.93-14.6-13.36-21.92-.18-.29-.32-.6-.47-.9l.33-.39C227,145.47,251.24,163.09,275.88,181A50.87,50.87,0,0,0,260.82,187.84Zm42.77,10.65c-1.23,0-2-.53-1.93-1.9a6,6,0,0,1,5.87-5.33c1.9.12,2.34.77,1.76,2.58C308.26,197.11,306.47,198.57,303.59,198.49Z"/><path class="cls-12" d="M96.1,242.16a.25.25,0,0,0,.2,0c.18-.19-.48-1.06-1.2-2C95.21,240.58,95.47,242.05,96.1,242.16Z"/><path class="cls-12" d="M92.49,234.64a14.6,14.6,0,0,0,1.88,4.4c.23.35.48.71.73,1.05h0A16.34,16.34,0,0,0,92.49,234.64Z"/><path class="cls-12" d="M111.78,240.59a25.59,25.59,0,0,0-6.2,1.54c-.69.22-1.72.54-3,.89a31,31,0,0,0,3.49-.8c1-.29,2-.63,3.45-1,.5-.12.85-.2,1.36-.3,1-.21,1.71-.3,1.71-.34A3.48,3.48,0,0,0,111.78,240.59Z"/><path class="cls-12" d="M96.53,230.13c-.23-.69-.55-1.72-.89-3a31,31,0,0,0,.8,3.49c.29,1,.64,2,1,3.44.13.5.21.86.32,1.36.21,1,.29,1.71.34,1.71a4.15,4.15,0,0,0,0-.81A25.91,25.91,0,0,0,96.53,230.13Z"/></g></svg>