<svg xmlns="http://www.w3.org/2000/svg" xmlns:xlink="http://www.w3.org/1999/xlink" viewBox="0 0 400 280"><defs><style>.cls-1{fill:url(#linear-gradient);}.cls-2{fill:#e8cc28;}.cls-3{opacity:0.8;}.cls-4{fill:#9ad707;}.cls-5{opacity:0.5;}.cls-6{fill:#ff2b9a;}.cls-7{fill:#70b9ef;}.cls-8{fill:#fff;}.cls-9{fill:#ffd5eb;}.cls-10{fill:url(#linear-gradient-2);}.cls-11{fill:none;stroke:#1d1d1b;stroke-miterlimit:10;stroke-width:0.25px;}</style><linearGradient id="linear-gradient" x1="200" x2="200" y2="280" gradientUnits="userSpaceOnUse"><stop offset="0" stop-color="#ababab"/><stop offset="0.03" stop-color="#bbb"/><stop offset="0.09" stop-color="#d4d4d4"/><stop offset="0.16" stop-color="#e7e7e7"/><stop offset="0.24" stop-color="#f5f5f5"/><stop offset="0.34" stop-color="#fdfdfd"/><stop offset="0.52" stop-color="#fff"/><stop offset="0.73" stop-color="#fdfdfd"/><stop offset="0.81" stop-color="#f6f6f6"/><stop offset="0.87" stop-color="#eaeaea"/><stop offset="0.92" stop-color="#d8d8d8"/><stop offset="0.97" stop-color="#c2c2c2"/><stop offset="1" stop-color="#ababab"/></linearGradient><linearGradient id="linear-gradient-2" x1="141.22" y1="139.92" x2="256.13" y2="139.92" gradientUnits="userSpaceOnUse"><stop offset="0"/><stop offset="0.01" stop-color="#1d0512"/><stop offset="0.02" stop-color="#4c0d2e"/><stop offset="0.04" stop-color="#771448"/><stop offset="0.05" stop-color="#9c1a5e"/><stop offset="0.07" stop-color="#bb1f71"/><stop offset="0.09" stop-color="#d42480"/><stop offset="0.11" stop-color="#e7278c"/><stop offset="0.13" stop-color="#f52994"/><stop offset="0.16" stop-color="#fd2b99"/><stop offset="0.22" stop-color="#ff2b9a"/><stop offset="0.22" stop-color="#fe2f94"/><stop offset="0.27" stop-color="#f6476c"/><stop offset="0.31" stop-color="#f15a4e"/><stop offset="0.35" stop-color="#ec6838"/><stop offset="0.39" stop-color="#ea702a"/><stop offset="0.43" stop-color="#e97326"/><stop offset="0.44" stop-color="#e47924"/><stop offset="0.6" stop-color="#afbd0f"/><stop offset="0.67" stop-color="#9ad707"/><stop offset="0.7" stop-color="#96d41d"/><stop offset="0.77" stop-color="#8bcd58"/><stop offset="0.86" stop-color="#7bc1b4"/><stop offset="0.91" stop-color="#70b9ef"/></linearGradient></defs><g id="_4" data-name="4"><rect class="cls-1" width="400" height="280"/><path class="cls-2" d="M106.63,62.61c-1.2,2.57-1.8,4.77-1.14,7.52.17.71-.84,2.05-1.65,2.57a15,15,0,0,1-4.4,1.8c-2.76.68-3.67-.2-4.19-3A3.6,3.6,0,0,0,93.45,69c-5.83-1.79-7.53-5.78-4.29-11.06-1.42-.54-2.81-1-4.17-1.59C76.8,53,72.21,42,75.8,34.37c2.7-5.77,9.78-9.44,17.33-8.66,6.24.65,11.29,3.34,13.68,9.58,2.29,6,.38,11.11-3.34,15.85-.88,1.13-1.68,2.32-2.85,3.93C105.31,55.28,108.27,59.09,106.63,62.61ZM93.56,46.71a9.52,9.52,0,0,1-1.87-.31,20.52,20.52,0,0,1-2.06-1.12c.69-.61,1.36-1.67,2.09-1.72,1-.06,2.6.44,2.85,1.11a69.88,69.88,0,0,1,2.25,8.38c.19.83-.17,1.83.14,2.58a2.29,2.29,0,0,0,1.75,1.18c.46,0,1-1,1.26-1.63.85-1.93,1.31-4.09,2.45-5.81,2.94-4.4,4.58-8.89,2.21-14-2.29-5-6.53-7.16-11.72-7.59-7.91-.65-14.31,3.26-16,9.6s2.93,14.9,9.57,17.45c2.07.79,3.91,2.17,5.9,3.17a3.52,3.52,0,0,0,2.18.3c.27-.06.43-1.12.43-1.73a14.24,14.24,0,0,0-.24-3.76c-.29-1-1.08-1.9-2.11-3.6Zm8.54,14c.87-.47,2.05-2.06,1.82-2.58-.89-2-2-.23-3.06.16-2.7,1-5.47,1.77-8.18,2.72a29.3,29.3,0,0,0-3.05,1.45c.75,1.33,1.2,3.09,2.32,3.88,2.08,1.46,11-1.33,12.31-3.56a6.65,6.65,0,0,0,.28-1.61c-3.25,1.82-5.81,4.47-9.48,3.74L94.68,64C97.17,62.91,99.73,62,102.1,60.67Zm-3.84,7.4c.19,1.47.36,2.81.53,4.16,2.79.23,3-.14,1.87-4.61Z"/><path class="cls-2" d="M61.89,32.09l7.88,2c-2.19-2.91-5.11-3.75-7.71-2.85Z"/><path class="cls-2" d="M74.29,28.61l-3-3.44-.69.6,3.07,3.54Z"/><path class="cls-2" d="M99.28,34.29c2.51,2.21,4,5,3.16,8.49a3,3,0,0,1-1.7,2c-.65.12-1.68-.72-2.21-1.4-1.76-2.24-3.32-4.64-5.06-6.89-.89-1.15-2-2.11-3.43-3.58C93.92,31.52,96.82,32.12,99.28,34.29ZM99.61,40c.42-2.63-.88-4.24-4.25-4.9Z"/><g class="cls-3"><path class="cls-4" d="M294,27.62c1-2.48,2.5-2.65,4-.43a78.53,78.53,0,0,1,4.67,7.35c2.73,5.06,6.41,9,11.71,11.43,2.71,1.22,5.45,2.39,8.1,3.73a4.55,4.55,0,0,1,2.3,2.11,3.94,3.94,0,0,0,2.49,2.69,21.77,21.77,0,0,1,2.55,1.39,1.75,1.75,0,0,1,.72,2.63c-.72,1.37-1.4,2.77-2.14,4.13-2.33,4.27-2.33,4.21-6.67,1.89a7.54,7.54,0,0,0-3-.34,4.27,4.27,0,0,0-1.51.2c-.63.21-1.44.38-1.77.85-1.26,1.8-2.34,3.72-3.53,5.57-2.37,3.69-2.58,3.73-6.37,1.48-1.84-1.09-2.23-1.93-.87-3.55,2.19-2.62,2-4.92.95-8.11-1-3-2.69-3.87-5.22-4.3a20.45,20.45,0,0,0-4.05-.34c-4.19.16-8.38.53-12.57.63a12.49,12.49,0,0,1-3.52-1,17.62,17.62,0,0,1,1.16-3.32c1-1.78,2.35-3.4,3.41-5.17a1.88,1.88,0,0,0-.1-1.77c-2-1.46-1.91-3.21-1-5.17.51-1.11,1-2.24,1.62-3.3,1.72-2.94,2.47-3.23,6-2.19C292.23,32.31,293,29.93,294,27.62Zm1.75,27.27a21,21,0,0,1,11.17,2.69c2.9,1.56,5.75,3.23,8.61,4.86,2.22,1.27,2.7,1.11,4.38-.88a18.3,18.3,0,0,0,3.71-7.34c.57-2.21.28-2.77-1.83-3.76-3.68-1.73-7.4-3.41-11-5.33-4.33-2.32-7-6.21-9.25-10.44-.35-.66-.74-1.29-1.3-2.27-4.13,7.68-8.63,14.73-11.39,22.9C291.25,55.16,293.48,55,295.71,54.89Zm-14.72,0,.31.64,5.87,0a112.75,112.75,0,0,1,11.62-23.15c.22-.36.5-1,.35-1.22-.89-1.51-1.89-3-2.86-4.42l-.84.13A98,98,0,0,1,281,54.88Zm30.23,6.19c-1.92,2.78-3.7,5.38-5.53,7.95-.83,1.17-.65,1.88.65,2.58,2.73,1.47,2.7,1.52,4.39-1.06l4.58-7Zm9.92,2.22c1.4.57,2.65,1.17,4,1.56.32.1,1-.38,1.25-.77a62.39,62.39,0,0,0,2.87-5.65,2,2,0,0,0-.41-1.81,23.12,23.12,0,0,0-3.19-2ZM287,36.45A29.36,29.36,0,0,0,284.35,42c-.21.66.68,1.68,1.08,2.53.57-.46,1.36-.8,1.69-1.39,1.37-2.45,2.6-5,3.92-7.54C289.13,34.77,287.79,35.05,287,36.45Zm22.85,24-3.65-1.87,1.08,4.65.68,0Z"/></g><g class="cls-5"><path class="cls-6" d="M340.39,220c2.1,4.6,1.67,5.83-3.16,7.23-2.54.74-3.74,1.48-3.17,4.6a9.64,9.64,0,0,1-1.65,6.28,4.6,4.6,0,0,1-8.25-.89c-1.22-3.06-2.9-3-5.24-1.66-.85.47-1.72.89-2.59,1.31-2.12,1-3.75.56-4.77-1.64-.69-1.46-1.46-2.88-2-4.38-.7-1.81-.23-3.21,1.82-3.68,2.62-.6,3.62-2.28,3-4.77-.58-2.24-3.33-3.19-5.86-2.24-4.32,1.64-5.08,1.32-6.86-2.84s-1.66-4.78,2.5-7c1.61-.86,3.13-1.88,4.74-2.74,2-1.07,3.75-1,4.71,1.41.74,1.91,1.92,3.3,4.13,2.45s2.74-2.67,1.9-4.78c-1.1-2.75,0-4.3,2.55-5.22.5-.19,1-.46,1.46-.69,5.05-2.36,6.39-1.9,8.81,3.07,1.67,3.45,1.28,4.85-2.13,6.81-1.94,1.11-3.58,2.46-2.47,4.84s3.23,2.16,5.32,1.36C338.07,214.91,338.07,214.9,340.39,220Zm-5.6,5.57,0,.12c.31-.1.63-.17.92-.29,1.72-.68,4.14-.82,2.9-3.78-.94-2.26-1.63-4.39-5-2.6a5.82,5.82,0,0,1-7.85-2.29c-1.46-2.8-.43-5.67,2.93-7.78,1.47-.93,2.81-1.84,1.85-3.81-.82-1.67-1.39-3.79-4.08-3.15-3.57.85-4.86,2.35-4.42,5.25a5.67,5.67,0,0,1-3.61,6.42c-2.53.93-4.79.29-6.09-2.09s-2.59-2.11-4.41-.9c-1.15.77-2.44,1.35-3.63,2.08-2.14,1.32-1.06,2.94-.3,4.47.83,1.68,1.86,1.13,3.14.38,3.45-2,6.5-1.22,8.52,2.05s1.38,7.16-1.78,9c-2.1,1.24-1.91,2.4-1,4.18,1,2.12,2.42,2.09,4.22,1.16.94-.5,2-.82,3-1.29,2.77-1.32,4.58-.85,5.66,2.35.38,1.11,2.25,2.73,2.95,2.51a5.23,5.23,0,0,0,3-3.11c.38-1.35-.54-3-.59-4.56a5,5,0,0,1,.79-3.15C332.48,226,333.79,225.91,334.79,225.54Z"/><path class="cls-7" d="M289,248.19c-4,1.86-7.95,3.78-12,5.56-3.17,1.4-4.07,1-5.34-2.29-.43-1.1-.81-2.22-1.21-3.33-.68-1.88-.4-3.37,1.66-4.18.6-.24,1.44-.45,1.66-.92a46.46,46.46,0,0,0,1.65-4.5,32.81,32.81,0,0,0-4.35-.78c-.65,0-1.34.61-2,1-1.9,1.05-3.05.35-3.7-1.55a43.18,43.18,0,0,1-2.25-7,5,5,0,0,1,1.41-4c3.67-2.78,7-2.2,10,1.2,1.39,1.54,2.7,3.75,5.29,2.07,2.07-1.34,2-4.14.1-6.78-1.55-2.12-1.2-3.16,1.28-3.94,1.84-.58,3.69-1.12,5.48-1.82,3-1.17,4.38-.66,5.52,2.29.43,1.1.47,2.47,1.18,3.29s2.22,1.5,2.95,1.2c2.56-1.05,4.57-1,6.09,1.55,1.89,3.17,1.79,7.07-.95,8.73-3,1.81-2.89,3.69-1.63,6.34,1,2,.07,3.59-1.93,4.39-3,1.21-6,2.29-9,3.43Zm-2.65-1.29,3.91-1.48c1.5-.58,3-1.27,4.5-1.76,2.77-.86,3.53-2.32,2.17-5.06-1.85-3.71-1.73-3.77,2.06-5.63a4.63,4.63,0,0,0,1.31-.92c1.64-1.79,1.41-3.75.26-5.63s-2.53-.86-3.88-.14c-2.15,1.14-3.73.44-4.74-1.67-.41-.87-.71-1.8-1.06-2.7-.64-1.67-1-3.93-3.63-2.72-2,.91-5.52.58-3.8,4.89,1.22,3-.75,6.8-3.37,7.92-2.31,1-4.9-.2-7-3.23-.3-.44-.43-1.13-.84-1.35-.88-.47-2.12-1.25-2.79-.95-1.51.68-3.8,1.86-3.88,3a10.4,10.4,0,0,0,2,6c.38.58,2.69-.32,4.06-.11,1.89.3,4.6.45,5.36,1.67.89,1.41.36,4-.13,5.91-.26,1-1.59,2-2.64,2.63-2.33,1.41-1.24,3.1-.61,4.77.77,2,2.21,1.58,3.69.88C280.16,249.77,283.08,248.41,286.31,246.9Z"/></g><path d="M85.88,81.42a34.52,34.52,0,0,0-1.53,3.41A12.74,12.74,0,0,0,84,90.29a23.87,23.87,0,0,0,5.92,13.33A8.6,8.6,0,0,0,92.94,106h-.87A9.37,9.37,0,0,1,91,106c-.7-.1-1,.41-1.34.87a1.8,1.8,0,0,0,1.41.8c1.81.21,3.6.5,5.41.71a.78.78,0,0,0,.8-1.28c-1.18-1.67-2.4-3.31-3.6-5a1.22,1.22,0,0,0-.15-.17c-.31-.28-.67-.58-1.08-.28s-.17.73,0,1.09c.37.69.74,1.37,1.12,2l-.13.13a23.49,23.49,0,0,1-2.4-2,22.27,22.27,0,0,1-5.85-13.83A20.29,20.29,0,0,1,86,82c0-.14.07-.3.11-.45Z"/><path d="M315.42,81.42a36.93,36.93,0,0,1,1.52,3.41,12.59,12.59,0,0,1,.39,5.46,23.73,23.73,0,0,1-5.92,13.33,8.51,8.51,0,0,1-3.06,2.35h.88a9.37,9.37,0,0,0,1.06,0c.7-.1,1,.41,1.34.87a1.82,1.82,0,0,1-1.41.8c-1.81.21-3.61.5-5.41.71a1.11,1.11,0,0,1-.9-.33,1.08,1.08,0,0,1,.1-1c1.17-1.67,2.39-3.31,3.6-5a1.15,1.15,0,0,1,.14-.17c.32-.28.67-.58,1.08-.28s.18.73,0,1.09c-.36.69-.74,1.37-1.11,2l.12.13a22.46,22.46,0,0,0,2.4-2,22.21,22.21,0,0,0,5.85-13.83,20.06,20.06,0,0,0-.82-7.1c0-.14-.07-.3-.1-.45Z"/><path d="M85.88,197.35a34.68,34.68,0,0,1-1.53-3.42,12.73,12.73,0,0,1-.39-5.46,23.81,23.81,0,0,1,5.92-13.32,8.37,8.37,0,0,1,3.06-2.35h-.87a7.5,7.5,0,0,0-1.06,0c-.7.09-1-.41-1.34-.88a1.77,1.77,0,0,1,1.41-.79c1.81-.22,3.6-.51,5.41-.72a1.09,1.09,0,0,1,.89.34,1.08,1.08,0,0,1-.09,1c-1.18,1.66-2.4,3.3-3.6,4.94a1.22,1.22,0,0,1-.15.17c-.31.28-.67.59-1.08.29s-.17-.74,0-1.1c.37-.69.74-1.36,1.12-2l-.13-.14a24.83,24.83,0,0,0-2.4,2,22.27,22.27,0,0,0-5.85,13.84A20.23,20.23,0,0,0,86,196.8c0,.15.07.3.11.45Z"/><path d="M315.42,197.35a37.11,37.11,0,0,0,1.52-3.42,12.58,12.58,0,0,0,.39-5.46,23.67,23.67,0,0,0-5.92-13.32,8.29,8.29,0,0,0-3.06-2.35h.88a7.5,7.5,0,0,1,1.06,0c.7.09,1-.41,1.34-.88a1.78,1.78,0,0,0-1.41-.79c-1.81-.22-3.61-.51-5.41-.72a1.11,1.11,0,0,0-.9.34,1.08,1.08,0,0,0,.1,1c1.17,1.66,2.39,3.3,3.6,4.94a1.15,1.15,0,0,0,.14.17c.32.28.67.59,1.08.29s.18-.74,0-1.1c-.36-.69-.74-1.36-1.11-2l.12-.14a23.68,23.68,0,0,1,2.4,2,22.22,22.22,0,0,1,5.85,13.84,20,20,0,0,1-.82,7.09c0,.15-.07.3-.1.45Z"/><g class="cls-5"><path d="M115.84,225.2A24.82,24.82,0,0,0,113.6,218a31.7,31.7,0,0,0-4.74-7,42.66,42.66,0,0,0-5.94-4.94,3.09,3.09,0,0,0-1-.5c-1.52-.46-3-.91-4.56-1.33a30.89,30.89,0,0,0-8.77-1,28.75,28.75,0,0,0-8.76,1.67,16.31,16.31,0,0,0-5.57,2.9,30.59,30.59,0,0,0-6.39,6.9,26.19,26.19,0,0,0-3.11,6.41,29.53,29.53,0,0,0-1.29,8.78,13.13,13.13,0,0,0,.22,3.37c.22.76.46,1.53.7,2.29.08.28.19.53-.17.73-.1.06-.12.36-.08.54a3.27,3.27,0,0,0,.33.83c.66,1.17,1.27,2.37,2,3.49,1.23,1.86,2.49,3.7,3.83,5.48a14.08,14.08,0,0,0,1.8,1.63c.74.71,1.46,1.44,2.19,2.16.14.13.32.32.48.31.65,0,.93.48,1.34.82a.56.56,0,0,1,.17.39v0a53.75,53.75,0,0,1,6.13,1.8A30.31,30.31,0,0,0,94.05,255l0,0c1-.17,1.93-.36,2.88-.59a.69.69,0,0,1,.24,0c.43-.13.86-.27,1.28-.43,1.69-.66,3.28-1.48,4.9-2.06a.71.71,0,0,1,.2-.22c.83-.6,1.71-1.14,2.52-1.76,4.76-3.61,7.46-8.64,9.58-14.05a2.08,2.08,0,0,0,0-.79,3.63,3.63,0,0,1,0-.65c.15-.94.39-1.87.48-2.81A22.8,22.8,0,0,0,115.84,225.2Zm-9.28,21.46A22.07,22.07,0,0,1,97.85,252c-1.22.4-2.49.68-3.74,1a8.92,8.92,0,0,1-.9,0c-.44.06-.88.14-1.31.24a3.73,3.73,0,0,1-2.19.27,11.46,11.46,0,0,0-1.76-.37.41.41,0,0,0-.27,0c-.44.33-.86.09-1.29,0a15.1,15.1,0,0,0-2.66-.69,13,13,0,0,1-4.22-1.25A18.5,18.5,0,0,1,71.28,245a35.93,35.93,0,0,1-3.43-5.2,23.91,23.91,0,0,1-1.45-17.45,24.42,24.42,0,0,1,5.3-9.52,23.91,23.91,0,0,1,13-7.64c1.67-.37,3.4-.47,4.29-.59,7.13.1,12.68,2.18,17.27,6.5A24.68,24.68,0,0,1,106.56,246.66Z"/><path d="M111.69,229.58A22,22,0,1,1,90,207.43,22.08,22.08,0,0,1,111.69,229.58Zm-39.27.12A17.69,17.69,0,1,0,90.06,212,17.77,17.77,0,0,0,72.42,229.7Z"/><path d="M105.24,229.46a14.94,14.94,0,1,1-14.83-15A15,15,0,0,1,105.24,229.46ZM90.42,240.59a11.14,11.14,0,1,0-11.13-11.16A11.12,11.12,0,0,0,90.42,240.59Z"/><path d="M90.22,220.63c2.43.05,4.09.52,5.43,1.74a8.77,8.77,0,0,1,3,7.92,8.93,8.93,0,0,1-1.7,4.56,8.75,8.75,0,0,1-9.27,2.85,9.21,9.21,0,0,1-6.22-8.4,8.33,8.33,0,0,1,3.11-6.68A8.87,8.87,0,0,1,90.22,220.63Zm6.12,9.11a8.85,8.85,0,0,0-.77-3.56,4.3,4.3,0,0,0-1.76-2.12,6.77,6.77,0,0,0-9.55,2.29,5.23,5.23,0,0,0-.22,5,7.2,7.2,0,0,0,3.35,3.73,6.53,6.53,0,0,0,6.52-.53,4.13,4.13,0,0,0,2-2.46C96.09,231.22,96.23,230.29,96.34,229.74Z"/><path d="M94.05,229a4.18,4.18,0,0,1-8.35.21,4.25,4.25,0,0,1,4.2-4.32A4.07,4.07,0,0,1,94.05,229Zm-2-.19a1.76,1.76,0,0,0-1.85-1.8,2.19,2.19,0,0,0-2.25,2.12,2,2,0,0,0,1.93,1.93A2.36,2.36,0,0,0,92,228.82Z"/><path class="cls-8" d="M92,228.82a2.36,2.36,0,0,1-2.17,2.25,2,2,0,0,1-1.93-1.93A2.19,2.19,0,0,1,90.16,227,1.76,1.76,0,0,1,92,228.82Z"/></g><g class="cls-3"><path class="cls-9" d="M90,229.42a.47.47,0,0,1-.16-.7c.16.24.32.1.51,0,.53-.2,1.06-.38,1.59-.56l3.26-1.11c.22-.07.52-.06.63-.21s0-.42,0-.63c0-.48.85-1.43,1.33-1.41a1.26,1.26,0,0,1,.58.2.29.29,0,0,0,.39,0,1.54,1.54,0,0,1,.57-.29c.48-.14,1-.24,1.46-.37l1.28-.37a1,1,0,0,0,.39-.21,7.71,7.71,0,0,1,4.68-2.2,15.23,15.23,0,0,1,2.34,0,16.11,16.11,0,0,0,3.92-.33.27.27,0,0,0,.19-.13c.28-.61.57-1.23.82-1.86.18-.46.32-.95.46-1.43a2.81,2.81,0,0,1,1.33-1.79l3.15-1.74a1.28,1.28,0,0,1,1.36,0,4.51,4.51,0,0,1,.61.44.46.46,0,0,0,.53.1l3.79-1.51a3.46,3.46,0,0,1,1.42-.24c.68,0,.74.46.58.93s-.38,1-.53,1.44-.32,1.2-.48,1.8c0,.2,0,.27.24.27.55,0,1.1,0,1.65.1a1.09,1.09,0,0,1,.48.21.26.26,0,0,1,0,.45l-1.28.92c-.14.09-.28.18-.43.26-.34.19-.34.21,0,.48a14.28,14.28,0,0,0,2.61,2c.63.35.62.69,0,1.11a3.35,3.35,0,0,1-1.35.51l-3.85.73a.52.52,0,0,0-.47.42,3.53,3.53,0,0,1-.28.67,1.29,1.29,0,0,1-1.13.76c-1.17.08-2.34.14-3.51.21a2.92,2.92,0,0,1-2.17-.83c-.58-.5-1.17-1-1.78-1.44a12.05,12.05,0,0,0-1-.64.28.28,0,0,0-.22,0,14.67,14.67,0,0,0-3.6,1.92,9.35,9.35,0,0,1-2.4,1.41,6.75,6.75,0,0,1-1.52.43,8.19,8.19,0,0,1-3.12-.05.58.58,0,0,0-.32,0c-.64.17-1.28.34-1.92.53-.29.09-.55.24-.84.32a2,2,0,0,1-.68.07.28.28,0,0,0-.32.16c-.33.61-.53.7-1.2.55l-.34-.08a1.05,1.05,0,0,1-.9-.84c0-.18-.13-.2-.31-.16-1.35.35-2.71.69-4.07,1-.54.14-1.08.23-1.62.36C90.15,229.2,90.08,229.33,90,229.42Zm38.09-11.3V218a1.68,1.68,0,0,0-.46-.13c-.52,0-1,0-1.56.07-1,.11-2,.18-3,.38a45.22,45.22,0,0,0-6.43,1.92,20.39,20.39,0,0,1-4,1.24,15.84,15.84,0,0,1-3.83.27,10.18,10.18,0,0,0-2.81.07,3.64,3.64,0,0,0-1.52.56c-.41.29-.83.56-1.23.87a5.46,5.46,0,0,0-1.52,1.85,1,1,0,0,0-.09.46,1.51,1.51,0,0,0,1,1.31,4.21,4.21,0,0,0,.61.16,7.62,7.62,0,0,0,5.68-1.22,18.51,18.51,0,0,1,3.41-2.08,21.52,21.52,0,0,1,3.93-1.29c1.8-.36,3.57-.85,5.34-1.31a24.49,24.49,0,0,0,6-2.64A6.28,6.28,0,0,0,128.08,218.12Zm-14.25,5.23.07-.07c.28.19.57.36.83.57.61.47,1.23.93,1.8,1.44a2.9,2.9,0,0,0,2.22.87c1.12-.08,2.23-.13,3.34-.2a.37.37,0,0,0,.22-.1,2.22,2.22,0,0,0,.81-1.56c.15-1,.19-2,.27-3.05,0-.09,0-.18,0-.28l-2,.45-5.35,1.31-2,.52A1.86,1.86,0,0,0,113.83,223.35Zm8.55-5.29c0-.05,0-.1-.07-.14-.43-.64-.85-1.29-1.31-1.9a15.51,15.51,0,0,0-1.27-1.42c-.34-.35-.52-.34-1-.11l-1.8,1c-.45.25-.9.52-1.34.79a2.68,2.68,0,0,0-1.16,1.64c-.23.73-.46,1.45-.73,2.16a8.12,8.12,0,0,1-.59,1.08h.14c.59-.17,1.18-.32,1.76-.52l5.25-1.81,2-.66Zm-26.09,9.3c.06.12.24.19.24.45a.64.64,0,0,0,.44.64c.31.09.62.16.93.23a.36.36,0,0,0,.42-.21,2.64,2.64,0,0,0,.15-.29c.15-.29.28-.32.59-.27a1.42,1.42,0,0,0,.58,0c.45-.13.89-.29,1.33-.43l1.22-.39a2.1,2.1,0,0,1-1-1.25,1.94,1.94,0,0,1,.15-1.55l-1.28.34c-.43.11-.86.2-1.29.33a1.27,1.27,0,0,0-.53.27c-.24.21-.37.25-.65.09l-.26-.15a.38.38,0,0,0-.51,0,8.43,8.43,0,0,0-.65.69.63.63,0,0,0,0,.78c.14.22,0,.37,0,.48a4.23,4.23,0,0,0-.57.07c-1.17.38-2.34.78-3.51,1.17l-1.19.38,0,.07.84-.22,4-1A2.9,2.9,0,0,0,96.29,227.36Zm30.37-13.91a4.25,4.25,0,0,0-.79-.1,3.33,3.33,0,0,0-.82.23l-3,1.24-.86.34.19.18c.62.61,1.26,1.21,1.86,1.83s.59.64,1.44.5h0c.17,0,.23-.1.29-.26.17-.51.34-1,.56-1.52s.61-1.23.9-1.85C126.51,213.87,126.57,213.69,126.66,213.45Zm-2.89,10.68c.2,0,.37-.11.54-.14l3.71-.64a1.55,1.55,0,0,0,1.07-.59c.11-.16.1-.25-.05-.35l-.61-.4c-.77-.49-1.55-1-2.29-1.5s-.59-.49-1.3-.15a.58.58,0,0,0-.34.46c-.1.58-.22,1.15-.34,1.73S123.91,223.57,123.77,224.13Z"/><path class="cls-6" d="M128.08,218.12a6.28,6.28,0,0,1-.52.38,24.49,24.49,0,0,1-6,2.64c-1.77.46-3.54,1-5.34,1.31a21.52,21.52,0,0,0-3.93,1.29,18.51,18.51,0,0,0-3.41,2.08,7.62,7.62,0,0,1-5.68,1.22,4.21,4.21,0,0,1-.61-.16,1.51,1.51,0,0,1-1-1.31,1,1,0,0,1,.09-.46,5.46,5.46,0,0,1,1.52-1.85c.4-.31.82-.58,1.23-.87a3.64,3.64,0,0,1,1.52-.56,10.18,10.18,0,0,1,2.81-.07,15.84,15.84,0,0,0,3.83-.27,20.39,20.39,0,0,0,4-1.24,45.22,45.22,0,0,1,6.43-1.92c1-.2,2-.27,3-.38.52,0,1-.06,1.56-.07a1.68,1.68,0,0,1,.46.13Z"/><path class="cls-6" d="M121.42,221.42l-5.35,1.31-2,.52a.59.59,0,0,0-.14.06c.26.17.54.34.79.54.61.47,1.23.93,1.8,1.44a2.9,2.9,0,0,0,2.22.87c1.12-.08,2.23-.13,3.34-.2a.37.37,0,0,0,.22-.1,2.22,2.22,0,0,0,.81-1.56c.15-1,.19-2,.27-3.05,0-.09,0-.18,0-.28Z"/><path class="cls-6" d="M113.83,223.35l.11,0,0,0Z"/><path class="cls-6" d="M120.31,218.78l2-.66.09-.06c0-.05,0-.1-.07-.14-.43-.64-.85-1.29-1.31-1.9a15.51,15.51,0,0,0-1.27-1.42c-.34-.35-.52-.34-1-.11l-1.8,1c-.45.25-.9.52-1.34.79a2.68,2.68,0,0,0-1.16,1.64c-.23.73-.46,1.45-.73,2.16a8.12,8.12,0,0,1-.59,1.08h.14c.59-.17,1.18-.33,1.76-.52Z"/><path class="cls-6" d="M101.23,225.79a1.93,1.93,0,0,1,.15-1.55l-1.28.34c-.43.11-.86.2-1.29.33a1.27,1.27,0,0,0-.53.27c-.24.21-.37.25-.65.09l-.26-.15a.38.38,0,0,0-.51,0,8.43,8.43,0,0,0-.65.69.63.63,0,0,0,0,.78c.14.22,0,.37,0,.48a4.23,4.23,0,0,0-.57.07c-1.17.38-2.34.78-3.51,1.17l-1.19.38,0,.07.84-.22,4-1a2.9,2.9,0,0,0,.5-.25c.06.12.24.19.24.45a.64.64,0,0,0,.44.64c.31.09.62.16.93.23a.36.36,0,0,0,.42-.21,2.64,2.64,0,0,0,.15-.29c.15-.29.28-.32.59-.27a1.42,1.42,0,0,0,.58,0c.45-.13.89-.29,1.33-.43l1.22-.39A2.1,2.1,0,0,1,101.23,225.79Z"/><path class="cls-6" d="M124.66,217.67h0c.17,0,.23-.1.29-.26.17-.51.34-1,.56-1.52s.61-1.23.9-1.85c.08-.16.14-.34.23-.58a4.25,4.25,0,0,0-.79-.1,3.33,3.33,0,0,0-.82.23l-3,1.24-.86.34.19.18c.62.61,1.26,1.21,1.86,1.83S123.81,217.81,124.66,217.67Z"/><path class="cls-6" d="M129,222.41l-.61-.4c-.77-.49-1.55-1-2.29-1.5s-.59-.49-1.3-.15a.58.58,0,0,0-.34.46c-.1.58-.22,1.15-.34,1.73s-.25,1-.39,1.58c.2,0,.37-.11.54-.14l3.71-.64a1.55,1.55,0,0,0,1.07-.59C129.2,222.6,129.19,222.51,129,222.41Z"/></g><path class="cls-10" d="M232.34,164.84c-7.28.51-12.87-3.24-18.13-7.38a88.66,88.66,0,0,1-9.22-9.07c-.52-.56-.29-1.83-.4-2.77a9.49,9.49,0,0,1,2.92.88c3,2.18,5.73,4.63,8.71,6.78,9.53,6.9,19.8,1.34,23.66-5.69a17.46,17.46,0,0,0-8.16-24.21c-5-2.2-10-2.3-14.29,1.38-5.64,4.87-11,10.11-16.44,15.17-7.24,6.7-14.05,13.95-21.83,20-16.1,12.42-33.43.16-37.1-13.45-4.41-16.36,9.18-33.54,25.85-31.21,5.35.75,10.44,4.51,15.27,7.5,3.48,2.15,6.4,5.24,9.39,8.09.71.68.69,2.13,1,3.22-1.18-.17-2.64.05-3.47-.57-3-2.27-5.82-4.87-8.77-7.26-6.61-5.36-12.77-5.64-19.25-1A17.17,17.17,0,0,0,156,145.46c2.78,7.11,9.9,12.09,17,10.84a23.46,23.46,0,0,0,10.08-4.79,122.74,122.74,0,0,0,13.72-13.07c7.25-7.95,14.92-15.31,24.31-20.74,14.35-8.28,31.33,2.41,34.43,16.3,3.18,14.26-6.23,27.44-18.07,30.18C235.78,164.56,234,164.62,232.34,164.84Zm-61.14-5.08c-10-1.74-16.93-7-18.44-17C151,131,156.69,123.26,168.1,119.2c-7.18-2-16.39,2.68-20.54,9.62a21.13,21.13,0,0,0,2.63,25.79C155.56,160.44,165.08,163.53,171.2,159.76Zm57.11-40.83c10.39,3.27,16.61,9.55,16.61,19.62,0,12.18-6.92,19.31-19.53,21.08,6.82,3.21,15.49,1,21.2-4.95,6.11-6.38,7.59-17,3.46-24.7A20.78,20.78,0,0,0,228.31,118.93Z"/><line class="cls-11" x1="198.68" y1="88.11" x2="198.68" y2="190.71"/><line class="cls-11" x1="256.13" y1="88.11" x2="256.13" y2="190.71"/><line class="cls-11" x1="282.26" y1="114.8" x2="115.86" y2="114.8"/><line class="cls-11" x1="282.26" y1="165.04" x2="115.86" y2="165.04"/><line class="cls-11" x1="294.58" y1="116.52" x2="185.03" y2="215.53"/><line class="cls-11" x1="259.16" y1="86.23" x2="143.09" y2="186.34"/><line class="cls-11" x1="213.19" y1="64.47" x2="105.42" y2="161.88"/><line class="cls-11" x1="143.28" y1="91.22" x2="252.25" y2="186.78"/><line class="cls-11" x1="109.89" y1="123.18" x2="214.63" y2="215.04"/><line class="cls-11" x1="182.25" y1="65.28" x2="291.22" y2="160.84"/><line class="cls-11" x1="141.22" y1="88.11" x2="141.22" y2="190.71"/></g></svg>