<svg id="_6" data-name="6" xmlns="http://www.w3.org/2000/svg" xmlns:xlink="http://www.w3.org/1999/xlink" viewBox="0 0 400 280"><defs><style>.cls-1{fill:url(#linear-gradient);}.cls-2{fill:#e8cc28;}.cls-3{fill:#70b9ef;}.cls-4{fill:#9ad707;}.cls-5{fill:#ff2b9a;}.cls-6{fill:#e97326;}.cls-7{fill:url(#linear-gradient-2);}.cls-8{fill:url(#linear-gradient-3);}</style><linearGradient id="linear-gradient" x1="200" x2="200" y2="280" gradientUnits="userSpaceOnUse"><stop offset="0" stop-color="#ababab"/><stop offset="0.03" stop-color="#bbb"/><stop offset="0.09" stop-color="#d4d4d4"/><stop offset="0.16" stop-color="#e7e7e7"/><stop offset="0.24" stop-color="#f5f5f5"/><stop offset="0.34" stop-color="#fdfdfd"/><stop offset="0.52" stop-color="#fff"/><stop offset="0.73" stop-color="#fdfdfd"/><stop offset="0.81" stop-color="#f6f6f6"/><stop offset="0.87" stop-color="#eaeaea"/><stop offset="0.92" stop-color="#d8d8d8"/><stop offset="0.97" stop-color="#c2c2c2"/><stop offset="1" stop-color="#ababab"/></linearGradient><linearGradient id="linear-gradient-2" x1="112.83" y1="166.02" x2="112.83" y2="182.86" gradientUnits="userSpaceOnUse"><stop offset="0" stop-color="#ff2b9a"/><stop offset="0.02" stop-color="#f7339f"/><stop offset="0.1" stop-color="#d356b4"/><stop offset="0.19" stop-color="#b475c6"/><stop offset="0.3" stop-color="#9b8ed5"/><stop offset="0.41" stop-color="#88a1e1"/><stop offset="0.54" stop-color="#7aafe9"/><stop offset="0.7" stop-color="#72b7ee"/><stop offset="1" stop-color="#70b9ef"/></linearGradient><linearGradient id="linear-gradient-3" x1="75.92" y1="152.2" x2="75.92" y2="162.68" gradientUnits="userSpaceOnUse"><stop offset="0" stop-color="#9ad707"/><stop offset="0.27" stop-color="#acc10e"/><stop offset="0.82" stop-color="#d98720"/><stop offset="1" stop-color="#e97326"/></linearGradient></defs><rect class="cls-1" width="400" height="280"/><path class="cls-2" d="M146.56,149.78a8.08,8.08,0,0,0,.53,5.77c.25.49-.25,1.67-.76,2.2a11.42,11.42,0,0,1-2.92,2.13c-1.92,1-2.76.52-3.65-1.49a2.76,2.76,0,0,0-1.79-1.51c-4.64-.26-6.62-2.9-5.19-7.4-1.15-.14-2.27-.25-3.37-.41-6.67-1-12.06-8.26-10.8-14.56,1-4.77,5.51-8.77,11.24-9.57,4.73-.66,9,.42,11.86,4.59,2.78,4,2.31,8.16.42,12.34-.45,1-.82,2-1.39,3.42C144.25,144.6,147.13,146.88,146.56,149.78ZM134,140.4a7.09,7.09,0,0,1-1.43.1,12.93,12.93,0,0,1-1.73-.45c.4-.57.7-1.48,1.23-1.64.7-.22,2-.15,2.31.29a53.25,53.25,0,0,1,3.19,5.79c.29.58.21,1.39.57,1.88a1.73,1.73,0,0,0,1.52.56c.33-.1.54-.91.63-1.44a28.4,28.4,0,0,1,.76-4.74c1.36-3.79,1.76-7.41-.93-10.79s-6.14-4.11-10.05-3.48c-6,1-10,5-10.13,10s4.89,10.49,10.26,11.16c1.68.21,3.29.9,4.95,1.27a2.62,2.62,0,0,0,1.66-.17c.19-.09.11-.91,0-1.36a10.88,10.88,0,0,0-.87-2.73,14.36,14.36,0,0,0-2.22-2.28Zm8.87,8.77c.56-.51,1.14-1.9.87-2.24-1-1.34-1.5.19-2.23.67-1.82,1.21-3.72,2.31-5.56,3.5a25.71,25.71,0,0,0-2,1.63c.8.85,1.45,2.07,2.43,2.45,1.8.7,7.85-3,8.45-4.87a5.34,5.34,0,0,0-.08-1.25c-2.08,1.94-3.49,4.37-6.34,4.49L138,153C139.62,151.72,141.34,150.55,142.86,149.17Zm-1.49,6.17c.4,1.06.77,2,1.14,3,2.11-.34,2.22-.66.55-3.75Z"/><path class="cls-2" d="M107.9,135.35l6.2,0c-2.15-1.75-4.47-1.84-6.23-.7Z"/><path class="cls-2" d="M116.45,130.52l-2.84-2-.4.57,2.91,2.06Z"/><path class="cls-2" d="M136,130.17c2.26,1.18,3.85,3,3.89,5.7a2.26,2.26,0,0,1-.89,1.8c-.46.2-1.38-.23-1.89-.63-1.71-1.34-3.3-2.83-5-4.18-.87-.68-1.87-1.19-3.19-2C131.5,129.1,133.75,129,136,130.17Zm1.29,4.14c-.18-2-1.43-3-4-2.85Z"/><path d="M188.46,164.41a7.59,7.59,0,0,1,1.66,1.15,6,6,0,0,1,2,2.87,5.56,5.56,0,0,1-.41,3.93,7.31,7.31,0,0,1-2.08,2.58A48.18,48.18,0,0,0,186,178.2a4.31,4.31,0,0,0-1.13,2.64c0,.16-.18.3-.27.45-.08-.16-.23-.33-.23-.48a5.39,5.39,0,0,1,1.07-2.79,16.78,16.78,0,0,1,3.86-3.52,6,6,0,0,0,2.4-4.08,4.64,4.64,0,0,0-.33-2.52,5.71,5.71,0,0,0-.89-1.26,17.67,17.67,0,0,0-2-2Z"/><path d="M187.45,175l-.25-.1a4.42,4.42,0,0,1-2-1.95,5.28,5.28,0,0,1,.28-6,10.19,10.19,0,0,1,2.23-2.41c.76-.61,1.52-1.23,2.26-1.86a5.12,5.12,0,0,0,1.6-2.88c.07-.33.15-.65.23-1H192a4.39,4.39,0,0,1,0,1.14,5.6,5.6,0,0,1-2,3.32,40.24,40.24,0,0,0-3.28,2.82c-1.39,1.43-2.29,3.1-1.77,5.23a5.7,5.7,0,0,0,1.84,2.79,8.45,8.45,0,0,0,1.41,1.1c.18.14.27.22.25.25A4.15,4.15,0,0,1,187.45,175Z"/><path d="M185.05,158.39c0,.31.09.48.1.65,0,1.76,1.28,3,2.23,4.22.22.28.54.69,1,1.17a6.55,6.55,0,0,1-1.29-.77,7,7,0,0,1-2.34-3.57A1.65,1.65,0,0,1,185.05,158.39Z"/><path d="M189.6,176.25l.31.26.14.1a6.83,6.83,0,0,1,2.14,4.36c0,.17-.14.36-.21.54-.09-.14-.25-.28-.27-.44a7.06,7.06,0,0,0-1.89-4s-.15-.24-.35-.47l-.21-.22c-.44-.47-.64-.72-.6-.76S189,175.8,189.6,176.25Z"/><path d="M205.79,165.36a3.63,3.63,0,0,1,.92.58,2.89,2.89,0,0,1,1,1.4,2.76,2.76,0,0,1-.2,1.92,3.59,3.59,0,0,1-1,1.27,22,22,0,0,0-1.76,1.59,2.1,2.1,0,0,0-.55,1.29c0,.08-.09.15-.13.22s-.12-.16-.11-.23a2.57,2.57,0,0,1,.52-1.37,8.14,8.14,0,0,1,1.89-1.72,2.92,2.92,0,0,0,1.17-2,2.23,2.23,0,0,0-.16-1.23,2.39,2.39,0,0,0-.44-.61A9.89,9.89,0,0,0,205.79,165.36Z"/><path d="M205.75,170.78a2.76,2.76,0,0,1-.63-.33,2.8,2.8,0,0,1-1-3.15,4.88,4.88,0,0,1,1.46-1.84c.37-.3.74-.6,1.1-.91a2.5,2.5,0,0,0,.79-1.41c0-.16.07-.32.11-.48h.11a2.12,2.12,0,0,1,0,.56,2.79,2.79,0,0,1-1,1.62,19.48,19.48,0,0,0-1.61,1.38,2.62,2.62,0,0,0-.86,2.56,2.82,2.82,0,0,0,.9,1.37c.39.37.81.61.78.66S205.82,170.81,205.75,170.78Z"/><path d="M204.23,162.43c0,.07,0,.18,0,.32a4.34,4.34,0,0,0,1,2.08,4.18,4.18,0,0,0,.59.54,1.39,1.39,0,0,1-.39-.11,1.41,1.41,0,0,1-.25-.18,1.92,1.92,0,0,1-.36-.42,5.5,5.5,0,0,1-.79-1.4C204,163.13,204,163,204.23,162.43Z"/><path d="M205.52,170.58a3.64,3.64,0,0,1,1.15.77,3.47,3.47,0,0,1,.72,1,3.3,3.3,0,0,1,.33,1.16c0,.09-.07.18-.1.27-.05-.07-.13-.14-.14-.21a3.42,3.42,0,0,0-.92-1.95l-.07-.08a.84.84,0,0,1-.1-.15A5.69,5.69,0,0,0,205.52,170.58Z"/><path class="cls-3" d="M184.19,150.28a12,12,0,0,1-.52-1.17,1.2,1.2,0,0,1,.73-1.56,3.14,3.14,0,0,1,.91-.19.44.44,0,0,0,.49-.37,5.39,5.39,0,0,1,.61-1.36,1.35,1.35,0,0,1,2.06-.28,4.32,4.32,0,0,1,1.32,1.79c.13.28.24.4.59.33a4,4,0,0,1,2.08.07,1.37,1.37,0,0,1,.92,2,9.72,9.72,0,0,1-.84,1.28c-.08.11-.18.21-.24.28a8.67,8.67,0,0,1,.45,1.14,1.36,1.36,0,0,1-1.43,1.84h-.15c-.27,0-.61-.14-.79,0s-.22.48-.34.73a1.93,1.93,0,0,1-1.47,1.26,1.08,1.08,0,0,1-1.08-.37,11.7,11.7,0,0,1-1-1.62c-.13-.25-.22-.36-.52-.31a3.27,3.27,0,0,1-2.08-.35,1.36,1.36,0,0,1-.55-2A11.13,11.13,0,0,1,184.19,150.28Zm1.86,1.87-1.77-1.82a12,12,0,0,0-.89,1.22,1.15,1.15,0,0,0,.28,1.5,3.28,3.28,0,0,0,2.64.52l-.31-1.13c.13.29.24.59.38.87.05.09.2.21.28.2a11.43,11.43,0,0,0,1.15-.3c.08,0,.12-.16.18-.25a.93.93,0,0,0,.4,0c.61-.22,1.22-.44,1.81-.7a.54.54,0,0,0,.23-.4c0-.71-.06-1.43-.11-2.14a.62.62,0,0,0-.2-.41c-.53-.37-1.08-.72-1.64-1a.56.56,0,0,0-.44,0c-.56.23-1.1.49-1.64.73l1.62-.93a4.62,4.62,0,0,0-2.07-.59.25.25,0,0,0-.17.16c0,.47-.07,1-.08,1.42,0,.05.15.1.24.16a.53.53,0,0,0-.23.58,6,6,0,0,1,.12,1,1.4,1.4,0,0,0,.92,1.41,8.42,8.42,0,0,1,1,.67l-1.76-1Zm2.85,1.23c-.88-.45-1.58.3-2.4.27a4,4,0,0,0,1.06,1.91,1.26,1.26,0,0,0,1.65.08,2.86,2.86,0,0,0,1-1.74,3.15,3.15,0,0,1-.49-.14c-.24-.11-.47-.24-.7-.37l1.24.42.19-1.46-2.06.79Zm3.33-2.44a3.61,3.61,0,0,0,1.08-1.57,1.23,1.23,0,0,0-.48-1.52,4.1,4.1,0,0,0-2.76-.22c.1.57.2,1.08.3,1.6a.5.5,0,0,0,.15.25C191.07,150,191.64,150.43,192.23,150.94Zm-6.37-3.72,2.29.77a.36.36,0,0,0,.18,0l1.51-.5a4.8,4.8,0,0,0-1.48-2.11,1.25,1.25,0,0,0-1.68.07A3.45,3.45,0,0,0,185.86,147.22Zm4.55,6.57a1.76,1.76,0,0,0,2.11-.41,1.84,1.84,0,0,0-.36-2.1c-.48.3-1,.59-1.42.9a.4.4,0,0,0-.18.26C190.5,152.88,190.46,153.33,190.41,153.79Zm-4.82-6.3a1.69,1.69,0,0,0-1.75.7,1.82,1.82,0,0,0,.52,2c.37-.24.75-.47,1.12-.72a.31.31,0,0,0,.11-.22Zm5,4.54.1.09,1.51-1-1.65-1.53-.09.08Zm-5-2.54-1.18.85,1.45,1.33Zm4.62-.24.09-.05-.35-1.57-1.49.47Z"/><path class="cls-4" d="M185,187.22a9,9,0,0,1-.4-.91.94.94,0,0,1,.57-1.22,2.42,2.42,0,0,1,.71-.14.36.36,0,0,0,.38-.3,4.42,4.42,0,0,1,.48-1.06,1.05,1.05,0,0,1,1.61-.22,3.48,3.48,0,0,1,1,1.4c.1.22.19.32.46.26a3.07,3.07,0,0,1,1.62.06,1.06,1.06,0,0,1,.72,1.54,8.15,8.15,0,0,1-.65,1,2.33,2.33,0,0,1-.19.22,5.85,5.85,0,0,1,.35.89,1.05,1.05,0,0,1-1.12,1.43h-.12c-.21,0-.47-.11-.61,0s-.17.38-.26.57a1.52,1.52,0,0,1-1.15,1,.86.86,0,0,1-.85-.29,10.22,10.22,0,0,1-.77-1.27c-.1-.19-.17-.28-.41-.24a2.53,2.53,0,0,1-1.62-.27,1.06,1.06,0,0,1-.43-1.57A9.08,9.08,0,0,1,185,187.22Zm1.46,1.46-1.39-1.42c-.25.35-.51.64-.69,1a.9.9,0,0,0,.22,1.17,2.51,2.51,0,0,0,2.06.4l-.24-.88c.1.23.19.46.3.68,0,.07.15.17.21.16a7.17,7.17,0,0,0,.91-.24c.06,0,.09-.12.13-.19s.22.06.31,0c.48-.17,1-.35,1.42-.55a.42.42,0,0,0,.18-.31c0-.56,0-1.11-.09-1.67a.51.51,0,0,0-.15-.32c-.42-.29-.85-.56-1.28-.82a.43.43,0,0,0-.35,0c-.43.17-.86.37-1.28.57l1.26-.73a3.52,3.52,0,0,0-1.61-.46s-.13.07-.13.12c0,.37-.06.74-.07,1.11,0,0,.12.08.19.12a.43.43,0,0,0-.18.46,3.72,3.72,0,0,1,.09.81,1.09,1.09,0,0,0,.73,1.1,7.78,7.78,0,0,1,.79.53l-1.38-.78Zm2.22,1c-.68-.36-1.23.23-1.87.2a3.1,3.1,0,0,0,.83,1.5,1,1,0,0,0,1.29.06,2.26,2.26,0,0,0,.78-1.36,2.11,2.11,0,0,1-.38-.11c-.19-.08-.36-.19-.55-.29l1,.33.15-1.14-1.61.62Zm2.61-1.91a2.88,2.88,0,0,0,.84-1.23,1,1,0,0,0-.38-1.18,3.21,3.21,0,0,0-2.16-.18c.09.45.16.85.24,1.25a.41.41,0,0,0,.12.2Zm-5-2.91,1.79.61a.34.34,0,0,0,.14,0l1.18-.39a3.74,3.74,0,0,0-1.16-1.65,1,1,0,0,0-1.31.05A2.63,2.63,0,0,0,186.31,184.83Zm3.55,5.14a1.4,1.4,0,0,0,1.65-.33,1.43,1.43,0,0,0-.28-1.63c-.37.23-.75.46-1.11.7a.29.29,0,0,0-.14.2C189.93,189.25,189.9,189.6,189.86,190ZM186.1,185a1.31,1.31,0,0,0-1.36.55,1.4,1.4,0,0,0,.4,1.54l.87-.56a.28.28,0,0,0,.09-.18Zm3.89,3.55.08.07,1.18-.8-1.29-1.2-.07.07Zm-3.91-2-.93.66,1.14,1Zm3.61-.19.06,0-.27-1.23-1.16.37Z"/><path class="cls-4" d="M201.12,155.49a6,6,0,0,1,.62-.41c.56-.27.57-.26.54-.88a.78.78,0,0,0-.12-.32.33.33,0,0,1,0-.45.25.25,0,0,1,.36,0,.33.33,0,0,1,0,.46.4.4,0,0,0-.09.22c0,.11,0,.23,0,.34-.06.31.1.45.36.57s.6.32.9.49a.39.39,0,0,1,.22.37c0,.29,0,.58,0,.88,0,.14,0,.29,0,.46l1,.58a.52.52,0,0,0,.25,0,.25.25,0,0,1,.3.19c.06.14,0,.22-.13.26s-.3,0-.33-.13-.16-.21-.27-.27c-.28-.16-.55-.32-.81-.49a.24.24,0,0,0-.28,0c-.34.19-.68.37-1,.53a.37.37,0,0,1-.29,0c-.42-.23-.84-.47-1.25-.72a.42.42,0,0,1-.14-.28c0-.38,0-.76-.05-1.14a.25.25,0,0,0-.11-.18c-.29-.19-.58-.36-.87-.54a.26.26,0,0,0-.33,0,10.72,10.72,0,0,1-1.06.56.24.24,0,0,0-.15.29c0,.4,0,.8,0,1.2h0a.18.18,0,0,1-.15-.21,4.8,4.8,0,0,1,0-.85.51.51,0,0,0-.29-.58c-.28-.18-.56-.35-.85-.51a.32.32,0,0,1-.19-.31c0-.36,0-.72,0-1.07a.26.26,0,0,0-.12-.18c-.28-.19-.57-.36-.87-.54a.26.26,0,0,1-.38,0,.29.29,0,0,1,0-.27.31.31,0,0,1,.26-.11c.18,0,.22.16.22.3.31.17.6.35.9.5a.28.28,0,0,0,.22,0c.32-.16.63-.35,1-.5a.37.37,0,0,1,.31,0c.37.19.73.41,1.1.61a.37.37,0,0,1,.21.37c0,.34,0,.68.08,1a.17.17,0,0,0,.09.15c.37.21.75.4,1.13.6,0,0,.06,0,.1,0s-.11.13-.1.19c0,.42.05.84.09,1.25a.23.23,0,0,0,.1.17l1.18.68a.28.28,0,0,0,.22,0c.35-.17.69-.36,1-.54a.29.29,0,0,0,.17-.31c0-.35-.06-.71-.07-1.06a.31.31,0,0,0-.18-.3c-.37-.2-.74-.42-1.12-.61a.36.36,0,0,0-.27,0c-.25.12-.49.27-.74.4A3.19,3.19,0,0,1,201.12,155.49Zm-1.45-.88c0-.37-.06-.64-.06-.92a.3.3,0,0,0-.17-.28c-.34-.19-.69-.38-1-.58a.3.3,0,0,0-.33,0c-.31.16-.64.31-1,.48a.26.26,0,0,0-.12.17c0,.39,0,.77.07,1.16a.23.23,0,0,0,.08.16l1.14.67a.2.2,0,0,0,.17,0c.28-.12.55-.26.83-.39S199.73,154.82,199.67,154.61Zm2.62-.71a2.21,2.21,0,0,0,.21-.28s-.07-.09-.11-.14a1.57,1.57,0,0,0-.18.19S202.24,153.78,202.29,153.9Zm3.19,4.18c-.08-.06-.12-.12-.16-.13s-.08.06-.12.1.07.1.11.11S205.4,158.12,205.48,158.08Z"/><path class="cls-4" d="M198.43,157.09c.07,0,.15,0,.21,0q.44.25.87.54a.35.35,0,0,1,.14.25c0,.45,0,.9,0,1.34a.36.36,0,0,1-.22.35c-.33.19-.65.4-1,.62a.29.29,0,0,0-.06.19c0,.32,0,.63,0,.94a.64.64,0,0,1-.06.18v0s0,0,0,0l-.43.27c-.22.14-.45.27-.67.42a.23.23,0,0,0-.11.18c0,.43,0,.87,0,1.3a.27.27,0,0,0,.09.21c.29.21.59.4.89.59a.33.33,0,0,0,.42,0,7.57,7.57,0,0,1,.76-.49.43.43,0,0,0,.24-.44c0-.36,0-.71,0-1.07a.35.35,0,0,0-.19-.33c-.33-.22-.65-.46-1-.69.39.23.78.45,1.16.7.07,0,.09.18.1.28,0,.38,0,.76,0,1.15a.28.28,0,0,0,.17.28c.27.14.54.3.81.43a.42.42,0,0,0,.27,0,.33.33,0,0,1,.46.18.34.34,0,0,1-.19.42c-.16.05-.32-.07-.39-.26a.42.42,0,0,0-.16-.21l-1-.51-1.06.68a.48.48,0,0,1-.54,0c-.31-.2-.62-.4-.92-.62a.32.32,0,0,1-.11-.23c0-.47,0-.93,0-1.4a.38.38,0,0,1,.16-.25c.31-.2.62-.37.93-.57a.33.33,0,0,0,.11-.19c0-.32,0-.65,0-1a.36.36,0,0,0-.13-.23c-.33-.23-.69-.44-1-.68-.1-.07-.16-.08-.25,0l-.72.55a.24.24,0,0,0-.06.17c0,.14,0,.25-.19.24a.22.22,0,0,1-.21-.26.19.19,0,0,1,.24-.2.27.27,0,0,0,.19-.06c.26-.19.51-.39.76-.6a.44.44,0,0,0,.14-.27c0-.31,0-.63,0-.94a.23.23,0,0,0-.14-.25,4.83,4.83,0,0,1-.55-.3.59.59,0,0,0-.56-.11c-.21.07-.36-.06-.4-.28a.3.3,0,0,1,.23-.35.33.33,0,0,1,.43.26c0,.21.13.28.29.36s.44.24.62.34l1.21-.76,0,.06a2.11,2.11,0,0,1-.23.19c-.22.14-.46.27-.67.42a.4.4,0,0,0-.16.26c0,.4,0,.8,0,1.2a.32.32,0,0,0,.19.33c.21.11.39.27.59.4a.62.62,0,0,0,.76,0l.79-.52a.26.26,0,0,0,.06-.18c0-.44,0-.87,0-1.31a.26.26,0,0,0-.09-.17l-1-.67Zm2.43,7.48v.09c.08.06.16.16.23.16s.17-.12.18-.2-.11-.18-.17-.18S200.93,164.52,200.86,164.57Z"/><path class="cls-5" d="M196,178.6a3.48,3.48,0,0,1,.9.47.53.53,0,0,0,.77.08,2.52,2.52,0,0,1,.47-.22c.47-.18,1-.35.91-1a.43.43,0,0,1,.16-.32c.77-.57.24-1.26.17-1.9,0-.11-.24-.22-.39-.28a1.39,1.39,0,0,1-1.08-1.09,1.7,1.7,0,0,1,.72-1.6,1.3,1.3,0,0,1,1.69.32,1.47,1.47,0,0,1,0,1.84c-.14.18-.43.37-.42.55a7.08,7.08,0,0,0,.25,1.65.37.37,0,0,0,.65.07c.36-.4.71-.81,1-1.24a.76.76,0,0,0,.06-.48.78.78,0,0,1,.73-1c.49,0,.81.18.84.58.05.64-.24,1-.81,1a1.11,1.11,0,0,0-.55.28c-.19.18-.31.42-.49.61-.35.38-.79.7-.47,1.33.06.11,0,.31-.09.45s-.29.43-.24.59a8.12,8.12,0,0,0,.56,1.41c0,.07.24.09.37.1.69.07,1.08.44,1,1s-.66,1.42-1.2,1.38a1.34,1.34,0,0,1-1.23-1.21.93.93,0,0,1,.27-.59c.33-.26.29-.51.13-.82a3.5,3.5,0,0,1-.2-.54c-.1-.39-.26-.69-.74-.62a.21.21,0,0,1-.15,0c-.84-.6-1.46.11-2.14.38-.12.05-.19.31-.22.48-.13.87-.51,1.32-1.22,1.4a1.46,1.46,0,0,1-1.6-1.14A1.64,1.64,0,0,1,196,178.6Zm4.29-4.69a3.12,3.12,0,0,0-.41-.72c-.12-.11-.37-.07-.56-.1a2.57,2.57,0,0,0,0,.48.92.92,0,0,0,.15.43,2.4,2.4,0,0,0,.39.39Zm1.74,8.65a5.64,5.64,0,0,0-.77-.5c-.13-.07-.41-.09-.48,0a.6.6,0,0,0,0,.51C201,183,201.41,183,202.05,182.56Zm-1.35-4.37.09-.2c-.24-.12-.47-.33-.71-.33a1,1,0,0,0-.62.38c-.16.16-.11.39.19.35S200.35,178.26,200.7,178.19ZM195,180.1l.17.14.68-.79c-.15-.07-.33-.24-.45-.21C195,179.37,194.94,179.73,195,180.1Zm8-5.2a2.6,2.6,0,0,0-.35.53c0,.06.15.18.24.27a1.48,1.48,0,0,0,.33-.38C203.29,175.26,203.16,175.12,203,174.9Z"/><path class="cls-6" d="M286.72,110.59a22.79,22.79,0,0,1-1.11,3.1,3,3,0,0,1-3.84.79,4.58,4.58,0,0,1-1.56-5,1.91,1.91,0,0,1,2.89-1.14.88.88,0,0,0,.64,0c1.57-.72,2.73,0,2.78,1.74v.37Zm-5.51.54.34.11.62-2C281,109.75,280.83,110.29,281.21,111.13Z"/><path class="cls-6" d="M286.72,58.29a22.79,22.79,0,0,1-1.11,3.1,3,3,0,0,1-3.84.79,4.57,4.57,0,0,1-1.56-4.94,1.91,1.91,0,0,1,2.89-1.15.84.84,0,0,0,.64,0c1.57-.72,2.73,0,2.78,1.74v.36Zm-5.51.54.34.12.62-2C281,57.45,280.83,58,281.21,58.83Z"/><path class="cls-6" d="M273.47,77.22a22.78,22.78,0,0,1,.39,3.27,3,3,0,0,1-3.09,2.42,4.59,4.59,0,0,1-3.6-3.73,1.9,1.9,0,0,1,2.08-2.31.88.88,0,0,0,.58-.27c1.08-1.34,2.44-1.22,3.27.32l.16.32Zm-4.68,2.94.35,0-.33-2C268,79,268.06,79.58,268.79,80.16Z"/><path class="cls-6" d="M132,111.57a26.29,26.29,0,0,1-1.6,3.49c-.83,1.3-3.32,1.51-4.54.54a5.36,5.36,0,0,1-1.33-5.9,2.22,2.22,0,0,1,3.47-1,1.08,1.08,0,0,0,.75.09c1.88-.69,3.17.26,3,2.29,0,.14,0,.28,0,.42Zm-6.46.09.38.16.92-2.23C125.45,110,125.16,110.64,125.53,111.66Z"/><path class="cls-6" d="M308,110.11a34.65,34.65,0,0,1-1.72,4.77c-.95,1.81-4.2,2.35-5.92,1.22a7.07,7.07,0,0,1-2.4-7.62c.84-2.12,2.37-2.71,4.45-1.76a1.33,1.33,0,0,0,1,0c2.41-1.11,4.2,0,4.28,2.68V110Zm-8.49.83.52.17,1-3C299.24,108.81,298.93,109.64,299.53,110.94Z"/><path class="cls-6" d="M173.15,123.2a28.67,28.67,0,0,1-1.49,4.14c-.82,1.56-3.64,2-5.13,1.06a6.16,6.16,0,0,1-2.08-6.61c.73-1.84,2.06-2.35,3.86-1.53a1.12,1.12,0,0,0,.86,0c2.09-1,3.65,0,3.71,2.33,0,.16,0,.32,0,.48Zm-7.35.72.45.15.83-2.63C165.54,122.08,165.28,122.8,165.8,123.92Z"/><path class="cls-6" d="M149.34,81.46a30,30,0,0,1-1.5,4.14c-.82,1.56-3.64,2-5.12,1.06a6.16,6.16,0,0,1-2.09-6.61c.74-1.84,2.06-2.35,3.86-1.53a1.14,1.14,0,0,0,.87,0c2.08-1,3.64,0,3.7,2.33,0,.16,0,.32,0,.48Zm-7.36.72.45.15.83-2.63C141.73,80.34,141.46,81.06,142,82.18Z"/><path class="cls-6" d="M252.6,124a31.27,31.27,0,0,1-1.49,4.14c-.83,1.57-3.64,2-5.13,1.06a6.15,6.15,0,0,1-2.09-6.6c.74-1.84,2.06-2.35,3.86-1.53a1.19,1.19,0,0,0,.87,0c2.09-1,3.64,0,3.71,2.32v.49Zm-7.36.73.45.15.83-2.63C245,122.86,244.72,123.58,245.24,124.71Z"/><path class="cls-4" d="M150.73,45.61c.19,3.89-3.26,8-6.63,9.57-.85.4-1.24,0-1.56-.77a13.92,13.92,0,0,1,3.85-15,1.54,1.54,0,0,1,1.47,0A6.77,6.77,0,0,1,150.73,45.61Z"/><path class="cls-4" d="M135.54,41.79c1.63,2.47,1,6.51-.64,8.85-.4.59-.8.51-1.32.1a10.64,10.64,0,0,1-3.3-11.34,1.17,1.17,0,0,1,1-.59A5.17,5.17,0,0,1,135.54,41.79Z"/><path class="cls-4" d="M196.47,28c1.63,2.48,1,6.51-.64,8.86-.4.59-.8.5-1.32.09a10.63,10.63,0,0,1-3.3-11.34,1.19,1.19,0,0,1,1-.59A5.17,5.17,0,0,1,196.47,28Z"/><path class="cls-4" d="M122.32,56.39c2.63-1.77,6.94-1.1,9.45.58.64.43.56.85.12,1.41A11.33,11.33,0,0,1,119.83,62a1.26,1.26,0,0,1-.64-1A5.47,5.47,0,0,1,122.32,56.39Z"/><path class="cls-4" d="M158.24,62.34c-.63,3.1-4.17,5.66-7.14,6.23-.75.14-1-.22-1.07-.92a11.34,11.34,0,0,1,6-11.07,1.26,1.26,0,0,1,1.17.27A5.51,5.51,0,0,1,158.24,62.34Z"/><path class="cls-4" d="M107.29,85.07c4.17,1.89,6.61,7.71,6.45,12.08,0,1.1-.62,1.32-1.64,1.21-6.26-.66-12.29-5.93-13.63-12.09a1.82,1.82,0,0,1,.76-1.55C102.23,83.35,104.33,83.5,107.29,85.07Z"/><path class="cls-4" d="M234.72,46c-1.84,4.19-7.62,6.71-12,6.61-1.11,0-1.33-.61-1.24-1.63.58-6.27,5.78-12.36,11.92-13.78A1.79,1.79,0,0,1,235,38C236.38,41,236.26,43.06,234.72,46Z"/><path class="cls-4" d="M234.68,58.94c-2.16,2.42-6.62,2.84-9.54,1.81-.74-.26-.76-.7-.48-1.36a11.63,11.63,0,0,1,11.07-6.68,1.29,1.29,0,0,1,.89.84A5.65,5.65,0,0,1,234.68,58.94Z"/><path class="cls-4" d="M206.53,90.37c-4.17,1.89-10.16-.11-13.34-3.1-.8-.76-.58-1.35.17-2,4.62-4.28,12.55-5.34,18.07-2.29a1.79,1.79,0,0,1,.67,1.6C211.15,87.69,209.66,89.17,206.53,90.37Z"/><path class="cls-4" d="M125.22,91.68c1.32,3.22-.37,7.73-2.75,10.07-.6.59-1,.4-1.54-.19a12.49,12.49,0,0,1-1.24-13.83,1.41,1.41,0,0,1,1.24-.47A6.06,6.06,0,0,1,125.22,91.68Z"/><path class="cls-4" d="M205.33,69.9c-1.29,3.24-5.64,5.3-9,5.32-.84,0-1-.43-1-1.21a12.5,12.5,0,0,1,8.75-10.79,1.4,1.4,0,0,1,1.21.53A6,6,0,0,1,205.33,69.9Z"/><path class="cls-4" d="M297.25,81.7c-1.3,3.24-5.65,5.3-9,5.33-.84,0-1-.43-1-1.21A12.48,12.48,0,0,1,296,75a1.4,1.4,0,0,1,1.21.52A6,6,0,0,1,297.25,81.7Z"/><path class="cls-4" d="M293.32,97.79c-1.3,3.24-5.65,5.29-9,5.32-.84,0-1-.43-1-1.21a12.48,12.48,0,0,1,8.75-10.79,1.38,1.38,0,0,1,1.21.53A6,6,0,0,1,293.32,97.79Z"/><path class="cls-4" d="M285.64,73c-2.65,1.88-7.1,1.29-9.72-.38-.66-.42-.58-.86-.15-1.44a11.63,11.63,0,0,1,12.3-4,1.28,1.28,0,0,1,.68,1A5.63,5.63,0,0,1,285.64,73Z"/><path class="cls-4" d="M209.37,48.44c-.14,3.49-3.55,6.88-6.68,8-.79.29-1.11-.06-1.33-.81A12.53,12.53,0,0,1,206,42.55a1.4,1.4,0,0,1,1.32.09A6,6,0,0,1,209.37,48.44Z"/><path class="cls-4" d="M307,92.77c-.14,3.49-3.55,6.88-6.68,8-.8.29-1.12-.06-1.33-.81a12.49,12.49,0,0,1,4.63-13.1A1.38,1.38,0,0,1,305,87,6.06,6.06,0,0,1,307,92.77Z"/><path class="cls-4" d="M319.24,83.31c.78,3.52-1.73,7.81-4.55,9.78-.71.5-1.13.23-1.54-.46a12.9,12.9,0,0,1,1.16-14.3,1.44,1.44,0,0,1,1.34-.26A6.25,6.25,0,0,1,319.24,83.31Z"/><path class="cls-4" d="M246,70.09c-1.31,2.71-5.16,4.22-8,4-.72,0-.86-.43-.77-1.1a10.76,10.76,0,0,1,8.14-8.76,1.2,1.2,0,0,1,1,.53A5.22,5.22,0,0,1,246,70.09Z"/><path class="cls-4" d="M257.49,56.16c3.59.31,6.93,4,8,7.27.26.83-.12,1.14-.9,1.33a12.9,12.9,0,0,1-13.3-5.39,1.47,1.47,0,0,1,.16-1.36A6.25,6.25,0,0,1,257.49,56.16Z"/><path class="cls-4" d="M267,46.51c3.18,1.69,4.82,6.38,4.48,9.81-.09.87-.56,1-1.35.87A12.89,12.89,0,0,1,260,47a1.47,1.47,0,0,1,.68-1.19A6.28,6.28,0,0,1,267,46.51Z"/><path class="cls-4" d="M281.18,42.58c.78,3.51-1.73,7.8-4.55,9.77-.71.5-1.13.23-1.54-.46a12.88,12.88,0,0,1,1.16-14.3,1.44,1.44,0,0,1,1.34-.26A6.27,6.27,0,0,1,281.18,42.58Z"/><path class="cls-4" d="M189.23,48.22c2.56,2.37,2.93,7.17,1.76,10.29-.3.79-.77.8-1.48.48a12.5,12.5,0,0,1-6.95-12,1.41,1.41,0,0,1,.93-.94A6,6,0,0,1,189.23,48.22Z"/><path class="cls-4" d="M129.8,71.32c2.56,2.37,2.93,7.17,1.76,10.29-.3.79-.77.8-1.48.48a12.5,12.5,0,0,1-7-12,1.37,1.37,0,0,1,.93-.94A6,6,0,0,1,129.8,71.32Z"/><path class="cls-4" d="M86,103.41c3-2.46,8.37-2.13,11.64-.35.82.44.77,1,.3,1.71a14,14,0,0,1-14.36,5.81,1.55,1.55,0,0,1-.89-1.17A6.72,6.72,0,0,1,86,103.41Z"/><path class="cls-4" d="M102.37,107.77c2.37-1.93,6.57-1.66,9.13-.27.65.35.61.76.24,1.34a10.93,10.93,0,0,1-11.27,4.56,1.23,1.23,0,0,1-.7-.92A5.3,5.3,0,0,1,102.37,107.77Z"/><path class="cls-4" d="M321.85,110c-.65-3.56-4.63-6.56-8-7.29-.85-.18-1.14.23-1.25,1a13,13,0,0,0,6.63,12.78,1.42,1.42,0,0,0,1.34-.28A6.29,6.29,0,0,0,321.85,110Z"/><path class="cls-4" d="M332.19,99.76c-2.48-2.63-7.46-3-10.68-1.71-.82.31-.83.8-.49,1.54a12.94,12.94,0,0,0,12.54,7.07,1.41,1.41,0,0,0,1-1A6.27,6.27,0,0,0,332.19,99.76Z"/><path class="cls-4" d="M176,71.82c2.37-1.93,6.57-1.66,9.13-.27.65.35.61.76.24,1.34a11,11,0,0,1-11.27,4.56,1.23,1.23,0,0,1-.7-.92A5.28,5.28,0,0,1,176,71.82Z"/><path class="cls-4" d="M270.33,116.86c-.14-3,2.56-6.28,5.2-7.51.67-.32,1,0,1.22.6a10.94,10.94,0,0,1-3,11.78,1.25,1.25,0,0,1-1.16,0A5.33,5.33,0,0,1,270.33,116.86Z"/><path class="cls-4" d="M179,61.92c2.36-1.93,6.56-1.66,9.13-.27.65.35.6.77.24,1.34a10.92,10.92,0,0,1-11.27,4.56,1.19,1.19,0,0,1-.7-.91A5.3,5.3,0,0,1,179,61.92Z"/><path d="M114.87,181.9c-2.75,1.26-5.49,2.56-8.27,3.76a7.7,7.7,0,0,1-2.89.69,3.75,3.75,0,0,1-4-3.65,14.56,14.56,0,0,1,.09-3c.42-4.12.8-8.25,1.34-12.35.44-3.32-1-6.06-2.48-8.76a1.83,1.83,0,0,0-1.45-.59c-1,0-1.92-.07-2.3-1.14s.27-1.77,1.12-2.3,1.74-1.17,2.66-1.66,1.73-.91,1.83-2.23c.09-1.1,1.43-1.28,2.25-.49a1.38,1.38,0,0,0,1.07.35c1-.22,2-.57,3-.87a1.69,1.69,0,0,1,2.16.73,1.63,1.63,0,0,1-.43,2.23c-1,.77-.79,1.56-.47,2.59,1.15,3.64,3.59,6.12,6.73,8.13s6,4.09,9,6.16a10,10,0,0,1,1,.79,4.35,4.35,0,0,1-1.1,7.56c-1.48.69-3,1.27-4.48,1.93s-2.95,1.35-4.42,2Zm4.52-3.77.12.25c.95-.44,1.89-.92,2.86-1.3a4.19,4.19,0,0,0,3-3.39c.23-1.65-1-2.55-2.14-3.36-3.16-2.2-6.29-4.47-9.55-6.52a16.18,16.18,0,0,1-7-9.05,2.34,2.34,0,0,1,.63-2.83c.24-.2.3-.6.45-.9a3.35,3.35,0,0,0-1.08-.07,38.29,38.29,0,0,0-10,4.59,3.53,3.53,0,0,0-.65.77,2.64,2.64,0,0,0,1,.29,2.11,2.11,0,0,1,2.3,1c1.74,3,3.17,6.11,2.68,9.8-.6,4.5-1,9-1.46,13.55-.14,1.33-.08,2.68,1.19,3.48a4,4,0,0,0,4.13.12C110.43,182.44,114.92,180.29,119.39,178.13Z"/><path d="M98.48,148.66a1.61,1.61,0,0,1-.57,2.26,1.45,1.45,0,0,1-2-.58A1.93,1.93,0,0,1,96.8,148,1.19,1.19,0,0,1,98.48,148.66Z"/><path d="M99.22,144.3a8.68,8.68,0,0,1-1.06,1.63c-.11.11-.84-.14-1-.39a1,1,0,0,1,.58-1.56C98.08,143.87,98.5,144.12,99.22,144.3Z"/><path class="cls-7" d="M107,168a7.46,7.46,0,0,0,.38,1.62c.06.11.69-.07,1.06-.12l-.24-1.67c1.57-.54,3.35-1.21,5.16-1.76a1.78,1.78,0,0,1,1.3.35c2.46,1.81,4.94,3.6,7.31,5.54,1.51,1.23,1.3,2.37-.48,3.21q-8,3.72-16,7.35c-1.85.83-2.83.22-2.77-1.82.1-3.31.33-6.62.68-9.91a3.21,3.21,0,0,1,1.37-1.91A8.21,8.21,0,0,1,107,168Zm4.15,6.26a1.37,1.37,0,0,0-.84,1.89,1.29,1.29,0,0,0,1.8.69,1.4,1.4,0,0,0,.77-1.88A1.27,1.27,0,0,0,111.14,174.24Zm-2.66-.21a5.08,5.08,0,0,0,.32-1.66,1.25,1.25,0,0,0-1.77-.67,1.14,1.14,0,0,0-.64,1.51C106.63,173.92,107.47,174.25,108.48,174Zm3.13-2.46a4.27,4.27,0,0,0,.17-1.56c-.06-.2-.82-.43-.91-.32a1.56,1.56,0,0,0-.46,1.12C110.45,171.05,111,171.21,111.61,171.57Z"/><path d="M75.42,164.16c-2.18-.31-4.36-.59-6.54-.95a5.65,5.65,0,0,1-2-.72,2.72,2.72,0,0,1-1-3.83,9.94,9.94,0,0,1,1.24-1.8c1.88-2.36,3.74-4.73,5.69-7,1.58-1.85,1.8-4.08,1.93-6.33a1.31,1.31,0,0,0-.65-.93c-.64-.38-1.15-.8-1-1.61s.86-1,1.6-1,1.52,0,2.27,0,1.42.13,2-.64,1.38-.22,1.57.59a1,1,0,0,0,.51.63c.71.27,1.45.44,2.18.66a1.22,1.22,0,0,1,1,1.29,1.19,1.19,0,0,1-1.15,1.2c-.9.08-1.1.64-1.3,1.39a10.78,10.78,0,0,0,.91,7.62c1.1,2.41,2.06,4.88,3.08,7.32a9.44,9.44,0,0,1,.32.89,3.17,3.17,0,0,1-3.66,4.19c-1.17-.17-2.33-.4-3.49-.59l-3.51-.51Zm4.25-.52,0,.21c.75.1,1.51.18,2.25.33a3,3,0,0,0,3.16-.9c.79-.92.42-1.94,0-2.9-1.07-2.59-2.09-5.21-3.27-7.75a11.77,11.77,0,0,1-.68-8.27,1.7,1.7,0,0,1,1.5-1.48c.22,0,.42-.24.62-.37-.21-.16-.39-.4-.63-.47a27.86,27.86,0,0,0-7.91-1.13,2.46,2.46,0,0,0-.7.22c.17.2.3.48.52.59a1.53,1.53,0,0,1,1,1.54c-.13,2.54-.48,5-2.23,7.05-2.13,2.52-4.17,5.13-6.23,7.7a2.41,2.41,0,0,0-.64,2.6,3,3,0,0,0,2.48,1.71C72.5,162.75,76.08,163.2,79.67,163.64Z"/><path d="M78.5,137.39c-.11.77-.63,1.23-1.24,1.16a1.06,1.06,0,0,1-1-1.13,1.4,1.4,0,0,1,1.43-1.1C78.42,136.42,78.53,136.91,78.5,137.39Z"/><path d="M80.67,135a6.68,6.68,0,0,1-1.29.59c-.11,0-.46-.42-.44-.62a.77.77,0,0,1,1-.73C80.14,134.3,80.3,134.62,80.67,135Z"/><path class="cls-8" d="M76.09,152.55a4.9,4.9,0,0,0-.4,1.14c0,.09.44.23.68.35l.52-1.11c1.17.28,2.52.57,3.84.95a1.24,1.24,0,0,1,.66.72c.8,2.08,1.61,4.16,2.29,6.27.43,1.35-.14,2-1.56,1.77q-6.34-.85-12.68-1.81c-1.46-.22-1.82-1-1-2.2q2.06-3,4.32-5.79a2.41,2.41,0,0,1,1.59-.64A6.64,6.64,0,0,1,76.09,152.55Zm.07,5.47a1,1,0,0,0-1.26.82.93.93,0,0,0,.83,1.13,1,1,0,0,0,1.21-.84A.92.92,0,0,0,76.16,158Zm-1.55-1.18c.3-.29.7-.54.85-.89s-.28-1-.81-1.11a.84.84,0,0,0-1,.68C73.53,156,73.91,156.58,74.61,156.84Zm2.89-.27c.36-.42.65-.62.72-.88s-.33-.59-.43-.57a1.16,1.16,0,0,0-.73.51C77,155.79,77.27,156.11,77.5,156.57Z"/><path d="M218.62,46.15l-.14.29h0l-.06.23.09-.18C218.55,46.38,218.59,46.26,218.62,46.15Z"/><path d="M248.21,106.23c1.67-3.86,3.15-7.79,4.91-12.2-2.42,1-4.67,1.8-6.89,2.75-.3.12-.48.66-.58,1-.74,2.89-1.4,5.79-2.19,8.67-.37,1.35-1,2.65-1.47,4,1.45-.78,2.86-1.44,4.15-2.28A5.35,5.35,0,0,0,248.21,106.23Zm-1.63-5.57c-.25-2.69.59-3.73,4.11-4.74-.88,2.08-1.58,3.81-2.38,5.49a1.05,1.05,0,0,1-1,.31A1.59,1.59,0,0,1,246.58,100.66Z"/><path d="M148.87,75.29l.19-.2L133.73,62.73c2.8,8.32,10.19,11.36,16.66,15.42a3.23,3.23,0,0,0-1-1.6c-.8-.63-1.7-1.11-2.54-1.68l-7.28-5,.29-.42Z"/><path d="M267.08,69.72l0,.06h0l0,.19.07-.16Z"/><path d="M281.61,54a4.92,4.92,0,0,0,1.48-1.24,1.44,1.44,0,0,0,.18-1.29c-.15-.25-.83-.28-1.25-.23a3,3,0,0,0-1.13.52,34.71,34.71,0,0,0-11,10.83c-1.38,2.16-3,4.3-2.77,7.09C270,62.69,275,57.67,281.61,54Z"/><path d="M263.55,104.46c2.86-1.6,5.77-3.13,8.64-4.71.52-.28,1-.64,1.49-1l-.49-.46c-2,1.09-3.94,2.27-6,3.25-5.26,2.51-10.59,4.68-16.51,2.07-.09,0-.23,0-.41.06l-1.85,3.38c2.53-.4,4.93-.89,7.34-1.12C258.43,105.7,261.11,105.83,263.55,104.46Z"/><path d="M239.81,114.4c4.57-4,10-6.14,15.78-7.47C249.79,106.46,242,110.14,239.81,114.4Z"/><path d="M245.47,92.55l-3.76,4.83C245.37,97,246,96.14,245.47,92.55Z"/><path d="M174.45,112.39l7.61,7,.47-.45-7.78-6.93Z"/><path d="M273.06,92.9h-8.22l0,.4h8.18Z"/><path d="M186.35,123.91l3.78,4.26.63-.54c-1.34-1.36-2.67-2.73-4-4.09Z"/><path d="M221.93,40.4c-.36.78-.66,1.6-1.09,2.35a18.82,18.82,0,0,0-2.52,10.32,36.12,36.12,0,0,0,4.4,16.16c2.2,4,2.72,8.24,2.88,12.61.09,2.51,0,5,0,7.55,0,1.55.16,3.09.25,4.64l.39,0c.59-1,1.17-2,1.75-3.07a6.94,6.94,0,0,1-.87,2.76c-1.95,3.63-4,7.22-5.9,10.85-2.15,4-4.44,7.94-6.32,12.07a85.52,85.52,0,0,0-4.3,11.57c-1.06,3.67-.71,7.49,0,11.61,1-1.1,1.63-1.92,2.35-2.72,3-3.31,6.05-6.6,9-9.95a2.88,2.88,0,0,0,.71-1.77c0-3.93-.06-7.86-.15-11.79,0-1.2-.26-2.38-.32-3.57s0-2.27,0-3.4l.44,0c.43,6.27.86,12.53,1.28,18.72-.13.08.07,0,.24-.15,3.78-2.94,7.6-5.82,11.29-8.85a23.79,23.79,0,0,0,4.34-4.46,27.63,27.63,0,0,0,5-12.76c.06-.55.15-1.1.29-2.14l-7.4,3.27c2-2.21,4.64-4.88,7-7.82,2.48-3.17,1.12-7.36,2.62-10.89-.21,2.61-.41,5.21-.64,8.15,2.16-2.49,4-4.77,6-6.87,2.51-2.59,5.64-4,7.45-3.58C251.4,83,245.52,90,246.23,95.66c2.5-.71,5-1.39,7.52-2.15a2.56,2.56,0,0,0,1.07-.9c1.88-2.49,3.82-4.93,5.54-7.52a10.52,10.52,0,0,0,1.52-4c.44-2.52.6-5.09.87-7.63H263v5.11l2.62-3.1c-.52,1.5-1.53,2.68-1.9,4a23.83,23.83,0,0,1-4.4,8.14c-1.33,1.74-2.61,3.51-4.06,5.47a8.67,8.67,0,0,0,1,.07c6.54-.57,13.05-2,19.68-.79.77.14,1.67-.49,2.51-.76l-.13-.88H259.64a7.08,7.08,0,0,1,.44-1.16A32,32,0,0,0,265,78.93a3.79,3.79,0,0,1,1.75-1.82c2.72-1.62,5.54-3.11,7.14-6l-3,2.67c0-.06-.07-.13-.11-.2,1.73-2.11,3.44-4.22,5.19-6.3.16-.2.59-.18.9-.26.16-1,.32-2.09.47-3.14l-.44-.25c-3.45,3.38-5.59,8.18-10.83,10.21.36-1.45.65-2.64.95-3.82l-2.38,5.08c1.4-5.63,2.71-11.29,6.77-15.75-4.32,3.78-6.18,8.85-7.57,14.24-.35-.57-.44-1.17-.72-1.65a9.66,9.66,0,0,0-1.21-1.36,7.19,7.19,0,0,0-.72,1.82,8.66,8.66,0,0,0,.29,2.12c.25,1.55-.21,2.44-1.92,2.78a16.26,16.26,0,0,0-10.05,6.15A16.73,16.73,0,0,1,248,85c0-3.25,1.58-6,.2-8.85a7.46,7.46,0,0,0-1.7,3.17c-.49,2.89-.71,5.82-1.08,8.72a6.36,6.36,0,0,1-.66,2.9c-2.14,2.82-4.54,5.4-8,6.71-3.14,1.18-6.23,2.48-9.36,3.71a7.4,7.4,0,0,1-1.29.26,6.29,6.29,0,0,1,.49-1.22,44.3,44.3,0,0,0,8-20.28q1-6.92,1.72-13.88c.07-.69-.65-1.47-1-2.2-.49.73-1,1.45-1.43,2.2-.11.18,0,.47-.06.7-.25,2.87-.56,5.72-.73,8.59-.29,4.66-3.38,8-5.52,11.79a2.66,2.66,0,0,1-.23-1.2,32.55,32.55,0,0,0-3.9-18.2c-4.77-8.89-5.87-18.46-.05-27.7a4,4,0,0,0,.86-1.93c0-.67-.58-1.32-.91-2-.32.18-.8.27-.94.54A34.08,34.08,0,0,0,220.27,41c-.65,1.69-1.11,3.45-1.65,5.19.94-2,1.89-4,2.84-6Zm-2.66,87.29c-1.9,2.38-4.05,4.56-6.11,6.82a6.49,6.49,0,0,1-.95.74c-3.18-5.41,4.41-20,8-23.88C222.85,115.92,222.45,123.68,219.27,127.69Zm40.47-44.64a64.34,64.34,0,0,1-6,8c-1.35,1.38-3.61,1.87-5.5,2.78-1.15-4.16,6.17-11.89,12.74-13.45A17.22,17.22,0,0,1,259.74,83.05Zm-21.93,19c1.24-.16,2.6.61,3.9,1-.45,1.12-.63,2.47-1.39,3.32-2.86,3.2-5.82,6.32-8.91,9.3-1.87,1.81-4,3.31-6.39,5.21-.29-4.37-.6-8.29-.75-12.21a2.88,2.88,0,0,1,1.1-1.9C229,103.85,233.33,102.64,237.81,102.06Z"/><path d="M317.3,95a44,44,0,0,1-20.3,8.56c-9.11,1.4-18.2.17-27.29.5-.08,0-.17-.13-.45-.37.68-.5,1.3-1,2-1.43a26.48,26.48,0,0,0,8.5-7.34c1.23-1.75,3.15-3,4.77-4.51.57-.52,1.24-.94,1.76-1.51.23-.26.37-1,.22-1.1a1.42,1.42,0,0,0-1.22-.38,14,14,0,0,0-7,5.92l6-4.88c0,.08.05.17.08.25-3.44,3.39-6.85,6.81-10.33,10.16a20.25,20.25,0,0,1-3.24,2.52c-2.65,1.71-5.36,3.32-8.05,5l.09.5c1.14-.09,2.29-.13,3.42-.29,3.42-.47,6.83-1.27,10.27-1.41,5.44-.21,10.91.23,16.35,0,6.07-.28,12-1.4,17.43-4.45,2.77-1.57,5.46-3.26,8.36-5a13.49,13.49,0,0,1-2.11,2.2,46.54,46.54,0,0,1-13.05,6.28c-7.22,2-14.57,1.9-21.95,1.78-2.91,0-5.83.14-8.74.38-3.22.26-6.47,1.24-9.61.94a31.93,31.93,0,0,0-10.23,1c-5.15,1.15-9.23,4.14-13.51,6.87-.2.13-.29.45-.46.71,2.56,0,5-.07,7.44,0,5.91.19,11.73,2.59,17.73.53l.06.68-10.68,1.45-.1-.51.68-.54c-1.51-.23-2.91-.44-4.31-.67-5.77-1-11.3-.68-16.51,2.4a31.46,31.46,0,0,0-10.37,10c-2,3.07-3.15,6.7-4.67,10.09v0c-4.24,2.75-5.43,7-5.54,11.7,0,1.5,0,3,0,4.49a30,30,0,0,0-6.2-8.92,33.3,33.3,0,0,0-11-7.25c-1.68-6.26-9.26-14.76-12.76-18.11-4.73-4.52-11.05-5.06-17.36-5,0-.22.05-.43.07-.65l10,.63-13.08-7.16c5.77,1.31,10.15,5.39,15.44,7.72-2.93-3.32-6.28-6.33-7.34-10.87,5.22,7.09,12,12.38,19.22,17.37.35-2.49.52-4.89,1.05-7.2a13.22,13.22,0,0,0-.22-7.43c-2.73-8-2-16.2-2.19-24.38a9.3,9.3,0,0,1,.36-1.91,39.52,39.52,0,0,1,.74,4.86c.85,4.89,1.57,9.84,4.56,14,1.43,2,2.74,4.09,4.32,6a61.34,61.34,0,0,0,6.28,6.61c2.87,2.51,4.57,1.95,6.62-1.28,1.56-2.46,3.55-4.64,5.26-7,2.17-3,4.28-6.05,6.36-9.12a3.48,3.48,0,0,0,.46-1.7c.34-4.77.53-9.54,1-14.29.37-3.81,0-7.34-2.07-10.69A25.72,25.72,0,0,1,220,64.41c-2-5.78-3.16-11.65-1.55-17.73a10.84,10.84,0,0,0-1,2.51c-1.18,7.24.27,14,3.49,20.55a11.12,11.12,0,0,1,1.43,4.34c.2,5.43.2,10.88.14,16.32a13.43,13.43,0,0,1-.82,5.4,44.39,44.39,0,0,1-4.42,6.93c-2.39,3.3-5,6.45-7.35,9.76-1,1.37-2.12,1.6-3.37.78a20.57,20.57,0,0,1-3.55-3c-1.08-1.11-1.92-2.45-2.92-3.64a37.36,37.36,0,0,1-9.11-25.61,29.81,29.81,0,0,1,2.47-11.31,71.32,71.32,0,0,0,2.69-7c2.73-9,1.24-17.26-4.6-24.69a5,5,0,0,0-1-.79l-.49.24a13.91,13.91,0,0,0,.45,2.26c.67,1.8,1.45,3.55,2.16,5.34,1.4,3.56,2.39,7.26,1.5,11.06-1.14,4.88-2.63,9.68-4,14.5a10,10,0,0,1-.9,1.53c-.55,1.09-1.43,2.16-1.54,3.3-.34,3.8-.46,7.63-.56,11.45-.08,2.87,0,5.74,0,8.61l-.4.29c-1.33-2-3-3.88-3.9-6.06s-1.05-4.72-1.53-7.1c-2.05,3.71-1.52,7.3.59,10.56a71.71,71.71,0,0,0,5.13,6.22c.47.58.84,1.25,1.26,1.87l-.4.32c-3-1.18-5.94-2.48-9-3.51a19.55,19.55,0,0,1-8-5.55,7.5,7.5,0,0,1-2-5,83,83,0,0,0-1.16-8.88A9.86,9.86,0,0,0,166.25,76l-.59.22c-.85,2.84.64,5.63.64,8.85-.74-.68-1.17-1-1.57-1.46a22.35,22.35,0,0,0-8.84-5.7,7.37,7.37,0,0,1-4.87-4.8,79.28,79.28,0,0,0-3.45-7.7,27.66,27.66,0,0,0-13.41-12.52,39.68,39.68,0,0,0-5.94-1.71l-.21.62c2.93,2,5.87,3.9,8.79,5.88,2,1.36,4.31,2.47,5.91,4.21a42.55,42.55,0,0,1,4.64,7c1.92,3.23,2.09,7.49,5.7,9.76L151.22,78c2.27,4.87,4.11,9.59,7.95,13.22-7.1-1-14-.78-21-.45a2.73,2.73,0,0,1-2.07-1C135,88,134.07,86,133,84.13c-.24-.4-.92-1-1.12-.88a1.92,1.92,0,0,0-1.06,1.22,5.49,5.49,0,0,0,.41,2.43,41.2,41.2,0,0,0,11.29,15.35c.5.44,1,.92,1.59,1.49-.46.19-.62.32-.78.32-7.54,0-15.1.22-22.63-.16a38.37,38.37,0,0,1-20.16-6.43c-1-.68-2-1.23-3.07-1.83h0L95,93.69l-.69.66c1,1.4,1.84,3.05,3.13,4.13a31.92,31.92,0,0,0,6,3.87c7.92,4,16.54,4.65,25.21,4.79,3.41.06,6.82-.29,10.24-.34a2.54,2.54,0,0,1,2,.81,3.5,3.5,0,0,0,3.26,1.86c2.8,0,5.6-.26,8.39-.42,1.24-.07,2.62-.57,3.68-.18,3.37,1.23,6.62,2.78,9.91,4.24a11.12,11.12,0,0,1,1.57,1.23,119.35,119.35,0,0,0-14.79,3.49c2.73,1.36,5.41,1,8.14.43,6.56-1.37,12.82-1.34,18.65,2.91A35.35,35.35,0,0,1,188,129c1,1.41,4.64,7,6.73,10.12a34.08,34.08,0,0,0-31.36,3.85c-8.95,6.21-13.93,14.68-14.46,25.62-.09,1.87.08,3.75.14,5.74l-.72.12c-3.21.39-6.35.83-7.49,4.65-.13.46-.9.86-1.46,1-1.85.58-3.77,1-5.61,1.58A183.13,183.13,0,0,0,97,198.62c-5.06,3.06-10,6.25-14,10.64-1.33,1.45-2.76,3.08-1.71,5.17s3.28,2.08,5.17,1.76a106.24,106.24,0,0,0,13.29-2.77,152.56,152.56,0,0,0,24.82-10.2,149.87,149.87,0,0,0,20.4-12c.38-.28,1.14-.54,1.41-.36,2.22,1.47,4.21.43,6.2-.45,1.06-.47,2.12-1.65,3-1.52s1.68,1.5,2.51,2.31a33.31,33.31,0,0,0,14.7,8.35,6,6,0,0,0-1.17.15,4.88,4.88,0,0,0-1,.48l.07.35a5.74,5.74,0,0,1,6,1.27c-3.49-.48-6.38.86-9.05,2.87,1.54.28,2.58-1,3.93-1.32a15.41,15.41,0,0,1,4.22-.63,14,14,0,0,1,4.24,1.19,42.56,42.56,0,0,1,3.84,2l-.05.51a73.82,73.82,0,0,1-8.75,1.8c-3.89.35-7.84.09-11.76.26-6.52.28-13,1-18.27,5.42-.64.53-1.29,1-1.94,1.56l.22.41c7.64-5.44,16.07-6.75,25.25-5.14-.44,1-.84,1.83-1.16,2.68a1.06,1.06,0,0,1-1.28.79c-1.27-.13-2.55-.26-3.83-.32A20.85,20.85,0,0,0,152,216a5.74,5.74,0,0,0-2.94,3c5.09-5,11.24-5,17.77-4.17-.18.59-.3,1-.44,1.41a44.51,44.51,0,0,0-2.5,11c-.06.72,0,1.46,0,2.19l.43,0a4.84,4.84,0,0,0,.25-.73c.4-2,.77-3.93,1.21-5.88.08-.36.41-.91.67-.94,1.11-.12,1.6-.92,2.25-1.64,1.11-1.24,2.14-2.72,3.54-3.49,3.19-1.77,6.87-1.43,10.41-2,0,1.13,0,2.05-1,2.65a2.1,2.1,0,0,0-.84,1.14c-.53,1.91-2,2.74-3.63,3.56a13.64,13.64,0,0,0-4.86,3.84c-.26.33-.86.44-1.32.59-.64.2-1.29.34-1.94.51l.1.29,2.49-.29c-.34,1.59-.6,2.91-.91,4.23s-.4,2.89-2.28,3.22a1.55,1.55,0,0,0,2.21-1.22c.46-1.61.76-3.27,1.21-4.89.13-.44.49-1.12.81-1.16a33.79,33.79,0,0,1,3.63-.05l.15.49-4,3a8.7,8.7,0,0,0,4.28-2.82c.34-.36.76-.84,1.2-.9A7.17,7.17,0,0,0,183,224s.15,0,.36,0c.34,1.53,1.08,3.12.93,4.62a14.84,14.84,0,0,1-1.8,5.41,11.71,11.71,0,0,0-1.34,6.12,2.79,2.79,0,0,1-1,2.41c-1.37,1.23-2.71,2.49-4.07,3.73-1,.93-1.14,1.51-.49,2.36.12-1.34.13-1.32,1.34-2.4s2.34-2.19,3.52-3.28c.21-.19.46-.33.73-.53.61,1.87-.64,3.09-1.23,4.56a1.89,1.89,0,0,0,1-.5c1-1,1-2.38,1.09-3.7a3.55,3.55,0,0,1,.38-1.81,9.79,9.79,0,0,0,1.76-5.76,20.48,20.48,0,0,1,.58-3.15l.44.1c1.68,5.22-1.1,9.48-3.14,13.92a5.74,5.74,0,0,0,2.13-2.89,50.81,50.81,0,0,0,2.14-4.92,5.9,5.9,0,0,0,.33-3.51,6.84,6.84,0,0,1-.7-2.1c0-.09.07-.19.13-.34.19.29.33.5.64,1a12.67,12.67,0,0,0,0-1.55c-.29-2.22-.62-4.44-.92-6.66-.17-1.22-.76-2.61-.39-3.65a31,31,0,0,1,3.06-5.91c.43-.7,1.34-1.1,2.26-1.83,0,.73,0,1,0,1.36-.23,5.87.88,11.17,6.08,14.83a1.69,1.69,0,0,1,.49,2.35c-.41.77-.79,1.56-1.19,2.34l.45.22a9.16,9.16,0,0,0,1.8-3.88,2.24,2.24,0,0,0-.4-1.46c-1-1.3-2.06-2.53-3.1-3.78l.8,1.85-.29.15c-1.52-1.62-2.95-3.35-3.31-5.62a29.87,29.87,0,0,1-.35-5.74,16.64,16.64,0,0,1,2.84-9.35,18.62,18.62,0,0,0,1.14-2l-.27-.35a24.33,24.33,0,0,0-3.41.87c-3.82,1.54-5.07,5.23-6.71,8.49-1,2.07-.91,4.46-.62,6.73.44,3.28,1,6.55,1.44,9.83a7.62,7.62,0,0,1,.05,1l-.34,0c-.26-1.15-.43-2.32-.8-3.43a31.88,31.88,0,0,1-1.82-11.41,8.54,8.54,0,0,1,1.25-4.8,30.82,30.82,0,0,0,1.75-3.38l-.31-.26c-.62.12-1.24.2-1.85.35A46,46,0,0,1,169.2,210c-2.34-.17-4.69-.08-7-.13a5.89,5.89,0,0,1-1-.16l0-.33a8,8,0,0,1,1.37-.18c2,0,3.92,0,5.87.12,5.45.38,10.65-.94,15.86-2.25a1.34,1.34,0,0,0,.88-.77c0-.26-.38-.74-.71-.89-1.26-.61-2.56-1.12-3.85-1.67l-1.54-.67.15-.36c.46.16.93.34,1.4.48,1.8.51,3.59,1.35,5.4,1.42a15.67,15.67,0,0,0,7.76-1.85c2.22-1.12,4.68-2.62,5.77-4.9.6-1.24,1-2.22,1.32-3a34.4,34.4,0,0,0,8.84-8.54,30.17,30.17,0,0,0,2.83-4.78c-.1,1.52-.23,3-.38,4.57a11.47,11.47,0,0,0,2,8.46c2.88,3.74,5.23,8.21,10.7,8.87.35,0,.66.36,1,.38a45.15,45.15,0,0,0,5.91.34,14.11,14.11,0,0,0,3.56-1.12c-1.13.16-2.27.27-3.39.49-3.65.72-7,.25-9.79-2.45-.72-.69-1.51-1.31-2.3-1.93-4.29-3.39-6.52-7.58-6.21-13.29.14-2.59.23-5.18.3-7.77a31,31,0,0,0,.42-18.32c0-.1,0-.21,0-.32a44.57,44.57,0,0,1,1-9.39c.84-3.26,2.42-6.33,3.66-9.5.18-.44.3-.92.49-1.57,3.07-4.38,5.91-8.93,9.27-13.06a18.22,18.22,0,0,1,12.47-6.76,48.57,48.57,0,0,1,13.78.45,15,15,0,0,0,10.59-1.83c1.05-.63,1.93-1.55,1.19-2.74-.21-.35-1.64,0-2.48.11-2.15.41-4.29,1.35-6.4,1.26a82.48,82.48,0,0,1-10-1.52,3.42,3.42,0,0,1-1-.58c.26-.35.45-.87.8-1,2.65-1.26,5.37-2.37,8-3.68,2.24-1.11,4.38-.9,6.77-.45a37.36,37.36,0,0,0,7.85.23,3,3,0,0,0,2.32-1.08c.79-1.62,2-1.64,3.45-1.56s2.76.09,4.13.2a78,78,0,0,0,21.82-1.52,36.29,36.29,0,0,0,14-6.33,7.5,7.5,0,0,0,3.51-5.56C318.64,94.16,317.93,94.54,317.3,95ZM193.19,42.43c4.08,7,3.56,20.76-1,25.91A32.13,32.13,0,0,0,193.19,42.43Zm-7.46,55.13-4-5.45.45-.33,4.08,5.36ZM174,97.1l13.61,6.39-.33.51-13.52-6.41Zm.54,5.12c3.18-.69,6,.86,8.92,1.47a.77.77,0,0,1,.16.07c7.85,3.85,6.61,3.07,6.05,10.28-.17,2.13-.25,4.26-.4,6.88-5.95-5.08-12.2-9.14-16.05-15.65C171.9,103.06,172.06,102.75,174.52,102.22Zm-44.68,4.48c-9.21-.75-18.39-1.78-26.79-6a28.07,28.07,0,0,1-4.74-3.51,4.49,4.49,0,0,1-.83-1.51c4,4.32,9.26,6.31,14.74,7.67a105.53,105.53,0,0,0,20.1,3.08A13.12,13.12,0,0,1,129.84,106.7Zm38.07,1.87L163,107.29l-.12-.52,5.3-2.7C168.07,105.7,168,106.91,167.91,108.57Zm-12.52-26.8c4.57-.29,11.48,8.31,10.88,12.07C161.15,91,158.05,86.66,155.39,81.77Zm-16.91,9.85,19.42.6,0,.68-19.43-.68Zm-6.39-5.68.45-.27c2.49,3.62,5,7.23,7.47,10.87a3.2,3.2,0,0,1,.39,1.72Zm28.72,23.6a43.21,43.21,0,0,1-4.13-1.94,6.18,6.18,0,0,0-5-.68,14.16,14.16,0,0,1-7.56,0l0-.51h8.15l.06-.52q-3.37-1.8-6.74-3.61c3.84.88,6.89,4.21,11.34,2.83-3.18-1.56-6.39-3.09-9.55-4.69a18.63,18.63,0,0,1-8.16-7.1c2.23,0,4.11,0,6,0,6.64-.14,13.16.39,19.41,2.88,2.55,1,3,1.51,3.09,4,0,.69,0,.69-2.55,2.85l2.24-.61c-3.38,2.34-7.2,3.35-11.73,4l5.37,2.72Zm21.54,130.37-.51-.13a8.34,8.34,0,0,1,1.13-4.64l.53.11C183.11,236.8,182.73,238.36,182.35,239.91Zm11.76-34.44c-.84,1.67-1.65,3.31-2.5,4.91a1.16,1.16,0,0,1-.7.55c-1.08.22-2.18.38-3.29.56C188.08,208.76,191.75,205.42,194.11,205.47ZM186.87,213c1-1.39,2.67-.94,4-1.37l.33.33c-.28.42-.46,1-.85,1.25-2,1.25-3.75,2.71-4.51,5.07,0,.11-.23.17-.61.46C185.57,216.55,185.72,214.61,186.87,213Zm-10.72,2.07-.07-.31,5.66-1.14.1.52C180,214.89,178,214.69,176.15,215.06Zm5.86,2.5.38.11a6.46,6.46,0,0,1-.07,2.07c-.09.28-.92.3-1.42.44l-.25-.33ZM177.4,226a1.35,1.35,0,0,1-.92.65c-1.22.07-2.43,0-4,0,1.79-2.66,4.28-3.81,6.71-5l.3.24C178.8,223.27,178.14,224.66,177.4,226Zm5.51-3c-.3,1.72-2.88,3.36-4.88,3.25a46.74,46.74,0,0,1,2.29-5c.3-.5,1.37-.53,2.09-.77A6.85,6.85,0,0,1,182.91,223Zm-9.84-12.09c3.92-.54,7.81-1.24,11.71-1.87l.61-.06c-1.19,2-1.88,4.06-4.58,4.33-2.18.22-4.3.95-6.47,1.21a46.52,46.52,0,0,1-5.29,0C169.73,212,170.93,211.16,173.07,210.87Zm-2,5c-1.49,1.81-2.94,3.56-4.38,5.32l-.49-.35c.61-1.76,1.21-3.53,1.88-5.27a1,1,0,0,1,.88-.35C169.71,215.41,170.41,215.7,171.09,215.91ZM143,190.39c-3.58,2.28-7.11,4.63-10.79,6.73a163.8,163.8,0,0,1-37.8,16,67.6,67.6,0,0,1-8.17,1.37,9.28,9.28,0,0,1-1.81,0c-1.8-.42-2.33-1.48-1.21-2.66A58.74,58.74,0,0,1,91,204.61,148,148,0,0,1,115.1,191a160.59,160.59,0,0,1,24.45-9.16c1.41-.39,2.32-.31,2.85,1.28a31,31,0,0,0,1.71,3.28C145.24,188.77,145.18,189,143,190.39Zm6.79-1a1.59,1.59,0,0,1-2.36-.78c-1.4-2.84-2.78-5.68-4.08-8.56a1.68,1.68,0,0,1,1.13-2.51c1.36-.49,2.68-1.14,4.07-1.55.31-.1,1.06.4,1.21.78,1.34,3.35,2.58,6.73,4,10.53C152.69,187.86,151.26,188.62,149.82,189.36Zm48.92,8.51a5,5,0,0,1-1.86,2.33,17.43,17.43,0,0,1-10.31,3.65,7.84,7.84,0,0,1-1.67-.13,22.65,22.65,0,0,1-8.74-3.15,6.61,6.61,0,0,0-.68-.39,34.69,34.69,0,0,0,24.14-4.52C199.33,196.31,199,197.05,198.74,197.87Zm14.11-22.5a30.51,30.51,0,0,1-8.31,14.26A32.13,32.13,0,0,1,189.42,198a31.78,31.78,0,0,1-15.77,0c-11.25-3.15-19.15-10.05-22.06-21.46-2.94-11.58.64-21.71,9.49-29.56a32.17,32.17,0,0,1,38.17-3.79,28.94,28.94,0,0,1,13.69,18.08C213,166,213,170.67,212.85,175.37Z"/><path d="M190.62,123a2.77,2.77,0,0,0,.55,1.78q4.29,5.17,8.7,10.26c1,1.22,2.19,2.37,3.45,3.73,2.72-13.21-3.47-22.74-11.54-31.57l.34-.3,3,1.29a50.15,50.15,0,0,1-2.82-5.33A61.5,61.5,0,0,1,190,95.23a22.8,22.8,0,0,1-.26-4.15h-.54a42,42,0,0,0,1.55,15.8,17.49,17.49,0,0,1,.6,9.7A38.05,38.05,0,0,0,190.62,123ZM194,111.46c4.67,3.18,10.05,19,8.06,23.71C193.73,130.12,189.63,118.06,194,111.46Z"/><path d="M268.9,206v-.62a15.56,15.56,0,0,0-2.29-.63,14.82,14.82,0,0,0-8.46,1.75c-2.56,1.2-5.11,2.26-8,1.89a19.87,19.87,0,0,0-3.36,0,35.6,35.6,0,0,1-13.46-1.87l-1.47-.49c1.11-.64,1.95-1.17,2.82-1.61,2.5-1.26,5.08-2.38,7.94-1.64a39.78,39.78,0,0,1,4.32,1.74,10.16,10.16,0,0,0,1.37.34c0-.15.06-.3.1-.45-2.77-1.86-5.72-3.12-9.26-2.77a8.8,8.8,0,0,1,3-1.39,18.56,18.56,0,0,1,3.36,0,5.25,5.25,0,0,0-5.32,0c-1.34.72-2.69,1.42-4,2.14a4,4,0,0,0-.67.58l.48-.1c-2,1.13-4.08,2.05-6.14,3-1.24.55-1.27.66-.55,1.8a30,30,0,0,1,3.46,10.8,21.5,21.5,0,0,1-.16,4.28,34.1,34.1,0,0,1-.62,3.79c-.32.88-.64,1.78-1,2.72q-.55,1.66-1,3.24a1,1,0,0,1-.32-.84c.45-3.28.87-6.56,1.39-9.83a16.41,16.41,0,0,0-1.63-10.95,15.31,15.31,0,0,0-3.1-4.33,12.12,12.12,0,0,0-7-2.4,8.88,8.88,0,0,0-1.09.09c.88,2.35,1.64,4.62,3.49,6.19s3.79,2.91,5.69,4.34a28.26,28.26,0,0,1-3.56-1.34,12.39,12.39,0,0,1-7.14-7.64,8.54,8.54,0,0,0-3.3-4.27c-.79-.61-1.68-1.1-2.53-1.64l-.38.28a10.37,10.37,0,0,0,.6,2.72,25.33,25.33,0,0,0,2.83,4.25,7.78,7.78,0,0,0,2.64,1.92c1.2.59,1.4.87.56,1.88a1.58,1.58,0,0,0-.13,2.24,21.34,21.34,0,0,1,1.85,3.22c1.13,2.39,1.73,4.8.37,7.36a3.7,3.7,0,0,0,.74,4.83,33.21,33.21,0,0,0,4.3,3,17.1,17.1,0,0,0,2.35,1c-.2.25-.36.31-.48.27a21.54,21.54,0,0,1-7-3.09c-1.95-1.49-1.94-1.5-1.25-3.89.09-.31.15-.62.26-.92,1.84-5.39-.59-9.45-4.11-13.17,0,0-.15,0-.33-.08l-2.57,3.74-.49-.29c.42-1,.81-2,1.27-3a3.15,3.15,0,0,0-.17-3.42c-1.38-1.72-3-3.27-4.67-5.09-.91,3-3.31,4.7-5.05,6.92a9.8,9.8,0,0,0-1.64,3.54,27,27,0,0,0-.74,5.22,10,10,0,0,0,.42,3.77c.8,2.25,1.87,4.4,2.85,6.59.37.83.71,1.64.35,2.24-.62-1.35-1.27-2.82-2-4.27-1.38-2.94-2.66-5.88-2-9.3a56.77,56.77,0,0,0,.55-5.85c.11-1.41-.58-2-2-1.61-1,.25-1.92.58-3,.91.43-1.29,1.48-1.47,2.4-1.77a16.65,16.65,0,0,0,8.06-6.16c1.22-1.61,1.14-3.47.5-5.48-.26.15-.34.44-.53.63-2,2-3.89,4-6,5.82-2.94,2.44-5.15,5.28-5.73,9.1a24.09,24.09,0,0,0-.18,5.5c.16,2.08.18,4.26,1.59,6l-.15-.79a29.57,29.57,0,0,1-.42-11,1.79,1.79,0,0,1,.71-1.15,13.64,13.64,0,0,1,2.68-1,1.11,1.11,0,0,1,1.52,1.26c-.06,1-.18,2-.33,3A19.14,19.14,0,0,0,201,228.65c.73,1.28,1.66,2.48,1.36,4.12,0,.19.26.65.37.63.27,0,.7-.2.75-.4a5.18,5.18,0,0,0,.32-2.3,12.16,12.16,0,0,0-1.38-3,15.84,15.84,0,0,1-1.49-13.4c1.17-3.6,4.06-6,6.19-8.89,0,0,.14,0,.27-.07a40.4,40.4,0,0,0,3.11,4,2.82,2.82,0,0,1,.59,3.47,15.12,15.12,0,0,1-1.38,2.53c-.77,1.11-1.67,2.13-2.48,3.22a7.84,7.84,0,0,0-1.83,5c.06,1.92.19,3.84.28,5.77a2.9,2.9,0,0,0,.45-1.61c0-1.32-.19-2.64-.26-3.95-.12-2.45,1.65-5.83,4.18-6.65-.05.34-.05.65-.12.94-.56,2.17-1.14,4.33-1.68,6.51-.3,1.22,0,2,.73,2.37a31.72,31.72,0,0,1,4.54-14.18,19.69,19.69,0,0,1,3.92,5.59c1,2.39.55,4.82-.1,7.18-.56,2.05-1.39,4-2,6-1.79,5.7-.65,10.94,2.76,15.7,1.66,2.32,3.16,4.63,3.1,7.62,0,.1.1.21.15.31l.31-.1a7.07,7.07,0,0,0,0-2.48,22.56,22.56,0,0,0-2.5-5c-3-4.05-4.52-8.46-3.71-13.49a39.85,39.85,0,0,1,1.41-4.84h.39c1.26,1.76,3.17,2.36,5.07,3s3.89,1.24,5.8,1.95c.4.15.94.68.94,1a11.72,11.72,0,0,0,1.45,5c.72,1.6,1.42,3.22,2.19,4.79a5.61,5.61,0,0,0,1,1.16L234,246A26.1,26.1,0,0,1,230,235.18c2.89,1,5.26,2.33,6.77,4.83,1.73,2.88,3.13,5.87,3.17,9.33a6,6,0,0,0,.28,1.29l.37,0a5.69,5.69,0,0,0,.09-1.08c-.16-1.39-.29-2.8-.56-4.17A13.67,13.67,0,0,0,231.89,235c-.85-.38-1.28-.57-1.44-.89a2.14,2.14,0,0,1,.11-1.73,32.81,32.81,0,0,0,1-4.54c0-.18.11-.37.16-.56a14.53,14.53,0,0,0,.51-1.93q.66-3.72,1.31-7.44c2.86.39,6.21,3.92,6.76,6.82a16.71,16.71,0,0,0,3.54,7.52,7.1,7.1,0,0,0,1,.9,39,39,0,0,0-2.37-4.08,9.29,9.29,0,0,1-1.43-4.39l8.39,5.4.23-.25A5.51,5.51,0,0,0,249,229a15.21,15.21,0,0,0-1.82-1.17c-3.25-1.77-6.13-3.92-8-7.22-.08-.14-.21-.25-.28-.39-.33-.63-.64-1.27-1-2,1.85-.06,3.31,0,4.26,1.66a3.05,3.05,0,0,0,2.09,1.34l.15-.28L242,218.8l.21-.52c1.83,0,3.67-.05,5.5,0,2,.07,4.21-.34,5.93,1.31.12.12.48,0,.72,0a5,5,0,0,1,1.17-.18c4.15.59,7.57,2.69,10.79,5.22.34.27.72.49,1.09.74l.2-.37a24.25,24.25,0,0,0-13.52-6.64,37.91,37.91,0,0,1,7.39-2.51c2.49-.41,5.1-.09,7.66-.09l0-.42c-.43-.1-.85-.24-1.29-.3a21.13,21.13,0,0,0-11.49,1.71,10.07,10.07,0,0,1-4.16.92c-3.35-.09-6.69-.48-10-.76-.39,0-.92,0-1.13-.24-1-1.08-1.85-2.24-2.78-3.4,2.09-.73,4.06.17,6.09.44a4,4,0,0,0-3.93-1.59,15.54,15.54,0,0,1-8.65-2,8.84,8.84,0,0,1-1.31-1c.17-.13.2-.18.23-.17a3.78,3.78,0,0,1,.57.1c5.55,1.37,11.11,2.23,16.88,1.54a46.34,46.34,0,0,1,9.91-.3,33.13,33.13,0,0,1,8.27,2.23,48.93,48.93,0,0,1,5.88,3.15,3.06,3.06,0,0,0,.75.05,24.63,24.63,0,0,0-15.86-6.94C260.66,205.64,264.48,204.68,268.9,206Zm-53.83,1.17-2.94-3.44.33-.28a6.06,6.06,0,0,1,2.89,3.49Zm-9.75-6.68c.19,3.2-5.44,8.56-9.46,8.84Zm21.22,8.4c-2.27.53-4.92-1-6.06-3.38C222.35,204.65,225.62,206.43,226.54,208.93Zm-6-1.22c1.18.61,2.38,1.18,3.54,1.84s2.62-.19,3.55,1C224.86,210.48,222.14,210.37,220.5,207.71Zm3.6,3.77c1.34,0,2.69,0,4,0a1,1,0,0,1,.75.48c.43.86.77,1.77,1.22,2.83C227.35,214.63,226,212.55,224.1,211.48Zm4.78,22a5.84,5.84,0,0,1-1-.41c-2.1-1.32-4.22-2.6-6.25-4a8.4,8.4,0,0,1-2-2.17,1.91,1.91,0,0,1-.16-1.64c2.25-4.14,1.09-7.9-1.14-11.57-.29-.48-.57-1-.85-1.47l.24-.25a7,7,0,0,0,1.15.67c2.54,1,5.09,1.87,7.63,2.8,1.2.44,2.41.85,3.57,1.37a1.2,1.2,0,0,1,.47,1q-.21,3.34-.54,6.67c-.27,2.75-.59,5.49-.89,8.24A7.92,7.92,0,0,1,228.88,233.49ZM240,216.86a16.33,16.33,0,0,1-1.9-.11c-1.38-.23-2.76-.5-4.12-.82a1.28,1.28,0,0,1-.86-.64c-.3-.94-.46-1.92-.7-3C236.13,212.5,239.29,214.38,240,216.86Zm19.86-7.32c1.47.25,2.9.72,4.35,1.09,0,.15-.07.31-.1.46-1.3-.34-2.58-.77-3.9-1a45,45,0,0,0-12.43-.25c-5.27.59-10.36-.5-15.49-1.3-.8-.13-1.88-.25-2-1.73,9,2.84,18.06,3.72,27.28.92l-2.46,1.43C257,209.3,258.45,209.3,259.9,209.54Z"/><path d="M194.81,225.56a.86.86,0,0,0,.07.1l0-.12Z"/><path d="M235.38,203l-.08,0h.1S235.38,203,235.38,203Z"/><path d="M174.33,141.89c-11,3.14-18,10.38-20.66,19.87-3,14.05,2.8,26.25,14.16,31.86a30.37,30.37,0,0,0,39.31-11.06c5.71-9,5.36-21.68-.82-29.89A29.43,29.43,0,0,0,174.33,141.89Zm2.19,53c-.52-.08-1-.16-1.55-.26-9.24-2.48-15.69-7.64-19.09-16.09a25.81,25.81,0,0,1,7.36-29,31.57,31.57,0,0,1,11.09-6.22,19.23,19.23,0,0,0,1,2.47c2.59,4.88,3.32,10.1,3.26,15.56-.07,6.11.11,12.21.21,18.32.06,3.47.22,6.95.28,10.42a5.25,5.25,0,0,1-2.41,4.61Zm27.11-10.1c-7.17,8.43-16.21,11.53-26.35,10.21,1.66-1.65,3.11-3.42,3.13-6,0-4.83.12-9.65.11-14.47,0-1.81-.22-3.61-.34-5.42-.19-2.87-.47-5.73-.57-8.6-.13-3.71.08-7.45-.23-11.14a8.43,8.43,0,0,0-3.82-6.33,28.83,28.83,0,0,1,17.94,1.5A25.57,25.57,0,0,1,203.63,184.79Z"/></svg>